<svg enable-background="new 0 0 479.989 479.989" viewBox="0 0 479.989 479.989" xmlns="http://www.w3.org/2000/svg"><path d="m439.597 107.426 37.84-37.76c2.27-2.3 2.933-5.741 1.68-8.72-1.249-3.042-4.232-5.009-7.52-4.96h-36.72l18.4-18.32c3.137-3.137 3.137-8.223 0-11.36s-8.223-3.137-11.36 0l-18.32 18.4v-36.72c-.016-3.23-1.973-6.133-4.96-7.36-2.979-1.253-6.42-.59-8.72 1.68l-37.76 37.68c-110.733-72.851-259.557-42.142-332.408 68.591-59.238 90.041-51.186 208.53 19.688 289.729l-34.96 70.08c-1.988 3.946-.401 8.756 3.544 10.744 1.109.559 2.334.852 3.576.856h40c3.012-.009 5.764-1.71 7.12-4.4l20.56-41.04c83.735 60.592 196.905 60.592 280.64 0l20.56 41.04c1.356 2.69 4.108 4.391 7.12 4.4h40c4.418-.013 7.989-3.606 7.976-8.024-.004-1.242-.297-2.466-.856-3.576l-34.96-70.08c71.796-81.249 79.939-200.636 19.84-290.88zm-20.72-35.44h33.44l-28.72 28.72-3.2 3.28h-33.52zm-43.28-12.72 3.28-3.2 28.72-28.8v33.52l-32 32zm-17.36 310.566c-71.777 65.547-183.099 60.497-248.646-11.28s-60.497-183.099 11.28-248.646c67.217-61.383 170.149-61.383 237.366 0l-22.64 22.88c-59.431-53.245-150.773-48.231-204.018 11.2s-48.231 150.773 11.2 204.018 150.773 48.231 204.018-11.2c49.161-54.872 49.161-137.946 0-192.818l22.72-22.8c65.547 71.776 60.497 183.099-11.28 248.646zm-124.526-124.213c.015.016.031.031.046.046 3.111 3.137 8.177 3.158 11.314.046.016-.015.031-.031.046-.046l21.92-21.68c2.904 4.838 4.477 10.358 4.56 16 .279 17.892-13.999 32.622-31.891 32.901s-32.622-13.999-32.901-31.891 13.999-32.622 31.891-32.901c5.935-.093 11.782 1.447 16.901 4.451l-21.84 21.76c-3.137 3.112-3.158 8.177-.046 11.314zm33.646-44.753c-21.618-15.344-51.581-10.258-66.925 11.36s-10.258 51.581 11.36 66.925 51.581 10.258 66.925-11.36c11.81-16.639 11.81-38.926 0-55.565l22.8-22.8c27.947 34.221 22.861 84.618-11.36 112.565s-84.618 22.861-112.565-11.36-22.861-84.618 11.36-112.565c29.449-24.05 71.757-24.05 101.205 0zm-101.135-22.8c-34.246 40.476-29.196 101.049 11.28 135.295s101.049 29.196 135.295-11.28c30.283-35.792 30.283-88.223 0-124.015l22.8-22.64c46.916 53.234 41.794 134.422-11.44 181.338s-134.422 41.794-181.338-11.44-41.794-134.422 11.44-181.338c48.55-42.788 121.347-42.788 169.898 0l-22.64 22.8c-40.476-34.246-101.049-29.196-135.295 11.28zm-99.585 285.92h-22.08l27.04-53.2c4.8 4.8 9.92 9.36 15.2 13.76zm368 0h-22.08l-19.76-39.44c5.28-4.4 10.4-8.96 15.2-13.76zm-34-68.16c-85.573 88.852-226.971 91.51-315.823 5.937-2.016-1.942-3.995-3.921-5.937-5.937l-.16-.24c-85.952-88.977-83.5-230.785 5.477-316.736 74.773-72.232 189.417-83.522 276.843-27.264v.88c-.03.239-.03.481 0 .72-.661.829-1.15 1.78-1.44 2.8v34.32c-82.727-66.336-203.567-53.048-269.902 29.68s-53.047 203.567 29.68 269.902 203.567 53.047 269.902-29.68c56.279-70.185 56.279-170.037 0-240.222h34.32c.932-.027 1.853-.216 2.72-.56h.72l.88-.4c56.23 87.42 44.934 202.038-27.28 276.8z"/></svg>