<svg enable-background="new 0 0 481.84 481.84" viewBox="0 0 481.84 481.84" xmlns="http://www.w3.org/2000/svg"><path d="m463.88 17.28c-10.621-10.523-25.052-16.295-40-16h-126.96c-2.126-.012-4.17.823-5.68 2.32-1.497 1.51-2.332 3.554-2.32 5.68v46.56c-.052 5.767 3.005 11.116 8 14 4.95 2.858 11.05 2.858 16 0 6.593-3.991 14.424-5.415 22-4 17.384 3.182 28.898 19.854 25.716 37.238-.963 5.263-3.231 10.201-6.596 14.362-6.029 7.433-15.069 11.777-24.64 11.84-5.62-.01-11.139-1.5-16-4.32-4.95-2.858-11.05-2.858-16 0-5.02 2.898-8.081 8.284-8 14.08l-.48 46.24c-.012 2.126.823 4.17 2.32 5.68 1.477 1.507 3.49 2.37 5.6 2.4h45.92c-13.255 22.958-5.389 52.314 17.569 65.569 7.33 4.232 15.648 6.45 24.111 6.431 3.472.024 6.934-.352 10.32-1.12 18.769-4.155 33.249-19.107 36.8-38 2.168-11.331.089-23.064-5.84-32.96h46.56c4.418 0 8-3.582 8-8v-128c.108-14.991-5.8-29.399-16.4-40zm.56 160h-38.64c-5.739-.023-11.051 3.03-13.92 8-2.979 4.917-2.979 11.083 0 16 3.964 6.603 5.359 14.434 3.92 22-3.213 17.379-19.905 28.862-37.284 25.649-5.213-.964-10.105-3.207-14.236-6.529v-.16c-12.342-9.779-15.735-27.084-8-40.8 2.979-4.917 2.979-11.083 0-16-2.972-4.984-8.357-8.026-14.16-8l-37.2-.16.4-38.8c7.124 4.32 15.269 6.667 23.6 6.8 26.501.688 48.542-20.237 49.23-46.737.623-23.997-16.577-44.765-40.27-48.623-11.28-2.127-22.948-.05-32.8 5.84l-.16-38.48h119.52c22.091 0 40 17.909 40 40z"/><path d="m258.2 33.28c-12.932-2.218-23.062-12.348-25.28-25.28 0-4.418-3.582-8-8-8s-8 3.582-8 8c-2.218 12.932-12.348 23.062-25.28 25.28-4.418 0-8 3.582-8 8s3.582 8 8 8c12.932 2.218 23.062 12.348 25.28 25.28 0 4.418 3.582 8 8 8s8-3.582 8-8c2.218-12.932 12.348-23.062 25.28-25.28 4.418 0 8-3.582 8-8s-3.582-8-8-8zm-33.28 19.44c-3.104-4.463-6.977-8.336-11.44-11.44 4.463-3.104 8.336-6.977 11.44-11.44 3.104 4.463 6.977 8.336 11.44 11.44-4.463 3.104-8.336 6.977-11.44 11.44z"/><path d="m366.84 291.6c-1.568-1.558-3.711-2.398-5.92-2.32h-46.56c-5.767-.052-11.116 3.005-14 8-2.858 4.95-2.858 11.05 0 16 3.991 6.593 5.415 14.424 4 22-3.182 17.384-19.854 28.898-37.238 25.716-5.263-.963-10.201-3.231-14.362-6.596-7.433-6.029-11.777-15.069-11.84-24.64.01-5.62 1.5-11.139 4.32-16 2.979-4.917 2.979-11.083 0-16-2.898-5.02-8.284-8.081-14.08-8l-38.24-.48v-38.48c7.277 4.266 15.565 6.503 24 6.48 26.509.13 48.105-21.254 48.236-47.763.114-23.234-16.428-43.214-39.276-47.437-11.28-2.127-22.948-.05-32.8 5.84l-.16-46.64c0-4.418-3.582-8-8-8h-128c-30.928 0-56 25.072-56 56v127.52c0 1.081.246 2.148.72 3.12v125.92c0 30.928 25.072 56 56 56h127.28c1.296-.024 2.563-.382 3.68-1.04h124.56c30.928 0 56-25.072 56-56v-127.52c.012-2.126-.823-4.17-2.32-5.68zm-349.92-122.32c0-22.091 17.909-40 40-40h120v38.56c-.052 5.767 3.005 11.116 8 14 4.95 2.858 11.05 2.858 16 0 6.593-3.991 14.424-5.415 22-4 17.384 3.182 28.898 19.854 25.716 37.238-.963 5.263-3.231 10.201-6.596 14.362-6.029 7.433-15.069 11.777-24.64 11.84-5.62-.01-11.139-1.5-16-4.32-4.95-2.858-11.05-2.858-16 0-4.984 2.972-8.026 8.357-8 14.16v37.44h-37.68c9.385-17.072 7.52-38.123-4.72-53.28-2.349-2.967-5.033-5.651-8-8-20.625-16.655-50.846-13.436-67.501 7.189-5.021 6.218-8.41 13.591-9.859 21.451-2.127 11.28-.05 22.948 5.84 32.8h-38.56zm40.64 296c-22.091 0-40-17.909-40-40v-120h38.64c5.739.023 11.051-3.03 13.92-8 3.016-4.907 3.016-11.093 0-16-8.712-15.377-3.309-34.904 12.068-43.616 13.367-7.573 30.23-4.578 40.172 7.136 4.278 5.606 6.584 12.468 6.56 19.52-.01 5.62-1.5 11.139-4.32 16-2.858 4.95-2.858 11.05 0 16 .744 1.29 1.659 2.474 2.72 3.52 3.037 3.503 7.444 5.517 12.08 5.52l37.52-.08v37.76c-7.351-4.077-15.595-6.276-24-6.4-26.51 0-48 21.49-48 48-.02 3.762.356 7.516 1.12 11.2 3.916 18.995 18.877 33.767 37.92 37.44 11.28 2.12 22.945.043 32.8-5.84l.16 37.84zm295.36-40.64c0 22.091-17.909 40-40 40h-120v-38.64c.023-5.739-3.03-11.051-8-13.92-4.907-3.015-11.093-3.015-16 0-6.603 3.964-14.434 5.359-22 3.92-12.488-2.248-22.469-11.664-25.44-24-.379-2.22-.566-4.468-.56-6.72.434-17.36 14.635-31.205 32-31.2 5.616-.037 11.14 1.427 16 4.24 4.907 3.015 11.093 3.015 16 0 5.02-2.898 8.081-8.284 8-14.08v-38.96l38.64.4c-13.275 22.947-5.434 52.31 17.513 65.584s52.31 5.434 65.584-17.513c2.792-4.826 4.722-10.102 5.703-15.591 2.127-11.28.05-22.948-5.84-32.8l38.4-.08z"/><path d="m424.92 289.28c0 22.091-17.909 40-40 40v16c30.928 0 56-25.072 56-56z"/><path d="m464.92 289.28c0 44.183-35.817 80-80 80v16c53.019 0 96-42.981 96-96z"/></svg>