<?xml version="1.0" encoding="iso-8859-1"?>
<!-- Generator: Adobe Illustrator 19.0.0, SVG Export Plug-In . SVG Version: 6.00 Build 0)  -->
<svg version="1.1" id="Capa_1" xmlns="http://www.w3.org/2000/svg" xmlns:xlink="http://www.w3.org/1999/xlink" x="0px" y="0px"
	 viewBox="0 0 480 480" style="enable-background:new 0 0 480 480;" xml:space="preserve">
<g>
	<g>
		<rect y="32" width="72" height="16"/>
	</g>
</g>
<g>
	<g>
		<rect y="64" width="72" height="16"/>
	</g>
</g>
<g>
	<g>
		<rect x="408" width="72" height="16"/>
	</g>
</g>
<g>
	<g>
		<rect x="408" y="32" width="72" height="16"/>
	</g>
</g>
<g>
	<g>
		<path d="M421.6,88l23.2-17.44l-9.6-12.96l-24,18.16C375.007,37.525,324.649,15.905,272,16c-4.418,0-8,3.582-8,8v184
			c0,4.418,3.582,8,8,8h184c4.418,0,8-3.582,8-8C463.998,164.33,449.034,121.978,421.6,88z M280,200V32
			c44.716,2.046,86.958,21.107,118.08,53.28L371.2,105.6l9.6,12.8l27.92-20.96C432.482,126.525,446.254,162.483,448,200H280z"/>
	</g>
</g>
<g>
	<g>
		<rect x="408" y="368" width="72" height="16"/>
	</g>
</g>
<g>
	<g>
		<rect x="408" y="400" width="72" height="16"/>
	</g>
</g>
<g>
	<g>
		<path d="M416,316.16c10.476-24.028,15.921-49.947,16-76.16c0-4.418-3.582-8-8-8H248V56c0-4.418-3.582-8-8-8
			c-63.868,0.029-123.54,31.814-159.2,84.8L36.96,97.76l-9.92,12.48l45.36,36.32c-54.402,91.02-24.716,208.908,66.304,263.309
			c91.02,54.402,208.908,24.716,263.309-66.304c2.535-4.242,4.906-8.58,7.107-13.005l26.08,19.84l9.6-12.8L416,316.16z
			 M109.852,358.173C80.421,325.844,64.076,283.719,64,240c-0.013-29.077,7.219-57.698,21.04-83.28l22,17.52l9.92-12.48l-24-18.88
			C124.004,95.841,175.697,66.515,232,64v176c-0.012,2.126,0.823,4.17,2.32,5.68l124.16,124.16
			C286.601,435.275,175.287,430.051,109.852,358.173z M403.04,306.16L380.8,289.6l-9.6,12.8l24.8,18.64
			c-7.092,13.542-15.883,26.124-26.16,37.44L259.28,248H416C415.017,267.982,410.634,287.651,403.04,306.16z"/>
	</g>
</g>
<g>
	<g>
		<rect x="152" y="464" width="16" height="16"/>
	</g>
</g>
<g>
	<g>
		<rect x="184" y="464" width="16" height="16"/>
	</g>
</g>
<g>
	<g>
		<rect x="216" y="464" width="16" height="16"/>
	</g>
</g>
<g>
	<g>
		<rect x="248" y="464" width="16" height="16"/>
	</g>
</g>
<g>
	<g>
		<rect x="280" y="464" width="16" height="16"/>
	</g>
</g>
<g>
	<g>
		<rect x="312" y="464" width="16" height="16"/>
	</g>
</g>
<g>
	<g>
		<rect y="384" width="72" height="16"/>
	</g>
</g>
<g>
	<g>
		<rect y="416" width="56" height="16"/>
	</g>
</g>
<g>
	<g>
		<rect y="352" width="72" height="16"/>
	</g>
</g>
<g>
</g>
<g>
</g>
<g>
</g>
<g>
</g>
<g>
</g>
<g>
</g>
<g>
</g>
<g>
</g>
<g>
</g>
<g>
</g>
<g>
</g>
<g>
</g>
<g>
</g>
<g>
</g>
<g>
</g>
</svg>
