<svg enable-background="new 0 0 480 480" viewBox="0 0 480 480" xmlns="http://www.w3.org/2000/svg"><path d="m0 32h72v16h-72z"/><path d="m0 64h72v16h-72z"/><path d="m408 0h72v16h-72z"/><path d="m408 32h72v16h-72z"/><path d="m421.6 88 23.2-17.44-9.6-12.96-24 18.16c-36.193-38.235-86.551-59.855-139.2-59.76-4.418 0-8 3.582-8 8v184c0 4.418 3.582 8 8 8h184c4.418 0 8-3.582 8-8-.002-43.67-14.966-86.022-42.4-120zm-141.6 112v-168c44.716 2.046 86.958 21.107 118.08 53.28l-26.88 20.32 9.6 12.8 27.92-20.96c23.762 29.085 37.534 65.043 39.28 102.56z"/><path d="m408 368h72v16h-72z"/><path d="m408 400h72v16h-72z"/><path d="m416 316.16c10.476-24.028 15.921-49.947 16-76.16 0-4.418-3.582-8-8-8h-176v-176c0-4.418-3.582-8-8-8-63.868.029-123.54 31.814-159.2 84.8l-43.84-35.04-9.92 12.48 45.36 36.32c-54.402 91.02-24.716 208.908 66.304 263.309 91.02 54.402 208.908 24.716 263.309-66.304 2.535-4.242 4.906-8.58 7.107-13.005l26.08 19.84 9.6-12.8zm-306.148 42.013c-29.431-32.329-45.776-74.454-45.852-118.173-.013-29.077 7.219-57.698 21.04-83.28l22 17.52 9.92-12.48-24-18.88c31.044-47.039 82.737-76.365 139.04-78.88v176c-.012 2.126.823 4.17 2.32 5.68l124.16 124.16c-71.879 65.435-183.193 60.211-248.628-11.667zm293.188-52.013-22.24-16.56-9.6 12.8 24.8 18.64c-7.092 13.542-15.883 26.124-26.16 37.44l-110.56-110.48h156.72c-.983 19.982-5.366 39.651-12.96 58.16z"/><path d="m152 464h16v16h-16z"/><path d="m184 464h16v16h-16z"/><path d="m216 464h16v16h-16z"/><path d="m248 464h16v16h-16z"/><path d="m280 464h16v16h-16z"/><path d="m312 464h16v16h-16z"/><path d="m0 384h72v16h-72z"/><path d="m0 416h56v16h-56z"/><path d="m0 352h72v16h-72z"/></svg>