<svg enable-background="new 0 0 480 480" viewBox="0 0 480 480" xmlns="http://www.w3.org/2000/svg"><path d="m448 384h16v56h-16z"/><path d="m448 456h16v24h-16z"/><path d="m128 224c-17.673 0-32 14.327-32 32s14.327 32 32 32 32-14.327 32-32-14.327-32-32-32zm0 48c-8.837 0-16-7.163-16-16s7.163-16 16-16 16 7.163 16 16-7.163 16-16 16z"/><path d="m227.76 184.96c-2.546-1.307-5.597-1.155-8 .4-8.481 5.61-17.875 9.698-27.76 12.08v-77.44c4.418 0 8-3.582 8-8v-112h-16v104h-120v-104h-16v112c0 4.418 3.582 8 8 8v21.84l-54.88 94.16c-2.101 3.647-1.017 8.298 2.48 10.64 6.054 4.06 13.116 6.358 20.4 6.64v66.72c.008 2.949 1.637 5.654 4.24 7.04 2.546 1.307 5.597 1.155 8-.4 6.298-4.133 13.1-7.44 20.24-9.84 2.419 20.017 19.358 35.104 39.52 35.2h56c22.091 0 40-17.909 40-40v-2.16c13.007-2.648 25.372-7.811 36.4-15.2 2.235-1.472 3.586-3.964 3.6-6.64v-96c-.008-2.949-1.637-5.654-4.24-7.04zm-155.76-64.96h104v16h-104zm-52.72 116.72 49.28-84.72h107.44v48h-4.88-48.72c7.662-5.275 14.417-11.76 20-19.2l-12.8-9.6c-13.639 18.081-34.952 28.737-57.6 28.8-2.379-.004-4.637 1.052-6.16 2.88l-21.52 25.84c-6.014 7.407-15.845 10.548-25.04 8zm132.72 99.28h-56c-12.889.01-23.484-10.161-24-23.04 4.236-.642 8.515-.963 12.8-.96h86.32 4.88c0 13.255-10.745 24-24 24zm64-52.4c-13.547 8.155-29.068 12.443-44.88 12.4h-86.32c-15.514-.006-30.829 3.495-44.8 10.24v-55.44c6.462-2.469 12.189-6.544 16.64-11.84l19.12-22.96h95.36c15.541.015 30.884-3.486 44.88-10.24z"/><path d="m16 32h16v88h-16z"/><path d="m16 0h16v16h-16z"/><path d="m27.025 364.012h33.92v16h-33.92z" transform="matrix(.7071 -.7071 .7071 .7071 -250.1693 140.0621)"/><path d="m112 384h16v32h-16z"/><path d="m62.113 384.109h35.76v16h-35.76z" transform="matrix(.4473 -.8944 .8944 .4473 -306.4847 288.2673)"/><path d="m478.88 244c2.101-3.647 1.017-8.298-2.48-10.64-6.047-4.084-13.109-6.41-20.4-6.72v-66.64c-.008-2.949-1.637-5.654-4.24-7.04-2.546-1.307-5.597-1.155-8 .4-6.248 4.121-12.995 7.427-20.08 9.84-2.427-20.077-19.457-35.184-39.68-35.2h-56c-22.091 0-40 17.909-40 40v2.16c-13.007 2.648-25.372 7.811-36.4 15.2-2.235 1.472-3.586 3.964-3.6 6.64v96c.008 2.949 1.637 5.654 4.24 7.04 2.546 1.307 5.597 1.155 8-.4 8.481-5.61 17.875-9.698 27.76-12.08v77.44c-4.418 0-8 3.582-8 8v112h16v-104h120v104h16v-112c0-4.418-3.582-8-8-8v-21.84zm-150.88-100h56c12.889-.01 23.484 10.161 24 23.04-4.236.642-8.515.963-12.8.96h-86.32-4.88c0-13.255 10.745-24 24-24zm-64 130.24v-77.84c13.547-8.155 29.068-12.443 44.88-12.4h86.32c15.514.005 30.829-3.495 44.8-10.24v55.52c-6.469 2.418-12.201 6.469-16.64 11.76l-19.12 22.96h-95.36c-15.541-.015-30.884 3.486-44.88 10.24zm144 85.76h-104v-16h104zm3.44-32h-107.44v-48h4.88 48.72c-7.662 5.275-14.417 11.76-20 19.2l12.8 9.6c13.639-18.081 34.952-28.737 57.6-28.8 2.379.004 4.637-1.052 6.16-2.88l21.52-25.84c6.014-7.407 15.845-10.548 25.04-8z"/><path d="m352 192c-17.673 0-32 14.327-32 32s14.327 32 32 32 32-14.327 32-32-14.327-32-32-32zm0 48c-8.837 0-16-7.163-16-16s7.163-16 16-16 16 7.163 16 16-7.163 16-16 16z"/><path d="m419.055 99.988h33.92v16h-33.92z" transform="matrix(.7071 -.7071 .7071 .7071 51.347 339.9383)"/><path d="m352 64h16v32h-16z"/><path d="m382.151 80.088h35.76v16h-35.76z" transform="matrix(.4473 -.8944 .8944 .4473 142.3171 406.4709)"/><path d="m312 392h16v16h-16z"/><path d="m152 72h16v16h-16z"/></svg>