<svg enable-background="new 0 0 480 480" viewBox="0 0 480 480" xmlns="http://www.w3.org/2000/svg"><path d="m32 400v-28.88l73.12-80.48c9.031 7.5 22.209 7.193 30.88-.72l56.56 42.4c2.815 12.952 15.597 21.171 28.549 18.356 10.75-2.336 18.535-11.681 18.891-22.676.003-1.48-.158-2.956-.48-4.4l62.72-69.68c3.081 1.339 6.4 2.046 9.76 2.08 5.665-.037 11.135-2.078 15.44-5.76l58.64 52.08c-1.348 3.051-2.055 6.345-2.08 9.68 0 13.255 10.745 24 24 24s24-10.745 24-24-10.745-24-24-24c-3.791.035-7.519.967-10.88 2.72l-61.12-54.64c.118-1.357.118-2.723 0-4.08 0-13.255-10.745-24-24-24s-24 10.745-24 24c.029 3.766.962 7.47 2.72 10.8l-59.84 66.48c-4.223-3.388-9.466-5.249-14.88-5.28-8.116.023-15.67 4.146-20.08 10.96l-51.92-39.28c.122-1.224.122-2.456 0-3.68 0-13.255-10.745-24-24-24s-24 10.745-24 24c-.003 1.48.158 2.956.48 4.4l-64.48 70.88v-88l77.2-70.16c3.33 1.78 7.026 2.766 10.8 2.88 13.255 0 24-10.745 24-24 .003-1.506-.158-3.008-.48-4.48l60.4-67.52c1.357.118 2.723.118 4.08 0 6.442-.005 12.611-2.6 17.12-7.2l64 21.28c3.728 12.72 17.061 20.009 29.781 16.281 11.192-3.28 18.406-14.132 17.099-25.721l56-35.04c9.88 8.836 25.053 7.989 33.888-1.892s7.989-25.053-1.892-33.888-25.053-7.989-33.888 1.892c-4.001 4.474-6.181 10.286-6.108 16.288-.078 1.119-.078 2.241 0 3.36l-56 35.04c-9.771-8.956-24.953-8.295-33.909 1.476-1.587 1.732-2.912 3.687-3.931 5.804l-58.16-19.52c.039-.719.039-1.44 0-2.16.087-13.255-10.587-24.07-23.842-24.157s-24.07 10.587-24.157 23.842c-.038 5.773 2.007 11.367 5.759 15.755l-54.96 61.84c-4.182-3.405-9.407-5.269-14.8-5.28-13.255 0-24 10.745-24 24 .005 3.371.742 6.701 2.16 9.76l-66.16 60.16v-237.92h-16v16h-16v16h16v80h-16v16h16v80h-16v16h16v80h-16v16h16v88c0 4.418 3.582 8 8 8h88v16h16v-16h80v16h16v-16h80v16h16v-16h80v16h16v-16h64v-16zm376-96c4.418 0 8 3.582 8 8s-3.582 8-8 8-8-3.582-8-8 3.582-8 8-8zm-96-80c4.418 0 8 3.582 8 8s-3.582 8-8 8-8-3.582-8-8 3.582-8 8-8zm-96 96c4.418 0 8 3.582 8 8s-3.582 8-8 8-8-3.582-8-8 3.582-8 8-8zm-96-56c4.418 0 8 3.582 8 8s-3.582 8-8 8-8-3.582-8-8 3.582-8 8-8zm288-224c4.418 0 8 3.582 8 8s-3.582 8-8 8-8-3.582-8-8 3.582-8 8-8zm-96 56c4.418 0 8 3.582 8 8s-3.582 8-8 8-8-3.582-8-8 3.582-8 8-8zm-104-32c4.418 0 8 3.582 8 8s-3.582 8-8 8-8-3.582-8-8 3.582-8 8-8zm-88 96c4.418 0 8 3.582 8 8s-3.582 8-8 8-8-3.582-8-8 3.582-8 8-8z"/><path d="m152 464h16v16h-16z"/><path d="m184 464h16v16h-16z"/><path d="m216 464h16v16h-16z"/><path d="m248 464h16v16h-16z"/><path d="m280 464h16v16h-16z"/><path d="m312 464h16v16h-16z"/></svg>