<svg enable-background="new 0 0 480 480" viewBox="0 0 480 480" xmlns="http://www.w3.org/2000/svg"><path d="m464 464v-24-64c0-4.418-3.582-8-8-8h-8v-24c0-4.418-3.582-8-8-8h-13.84c26.593-23.284 29.275-63.718 5.991-90.311s-63.718-29.276-90.311-5.991c-26.593 23.284-29.276 63.718-5.991 90.311 1.862 2.127 3.864 4.129 5.991 5.991h-13.84c-4.418 0-8 3.582-8 8v32c0 4.418 3.582 8 8 8h8v80h-32v-16h8c4.418 0 8-3.582 8-8v-32c0-4.418-3.582-8-8-8h-8v-56c0-4.418-3.582-8-8-8h-8v-16h8c4.418 0 8-3.582 8-8v-32c0-4.418-3.582-8-8-8h-8v-16h8c4.418 0 8-3.582 8-8v-32c0-4.418-3.582-8-8-8h-48v-32h8c48.601 0 88-39.399 88-88 0-4.418-3.582-8-8-8h-16c-28.695.045-55.566 14.077-72 37.6v-45.6h8c35.346 0 64-28.654 64-64 0-4.418-3.582-8-8-8h-16c-23.304.021-44.756 12.708-56 33.12-11.244-20.412-32.695-33.099-56-33.12h-16c-4.418 0-8 3.582-8 8 0 35.346 28.654 64 64 64h8v45.6c-16.434-23.523-43.305-37.555-72-37.6h-16c-4.418 0-8 3.582-8 8 0 48.601 39.399 88 88 88h8v32h-48c-4.418 0-8 3.582-8 8v24h-8c-4.418 0-8 3.582-8 8v32c0 4.418 3.582 8 8 8h8v16h-8c-4.418 0-8 3.582-8 8v32c0 4.418 3.582 8 8 8h8v56c0 4.418 3.582 8 8 8h8v16h-8c-4.418 0-8 3.582-8 8v24h-16v-24c0-4.418-3.582-8-8-8h-8v-16h8c4.418 0 8-3.582 8-8v-32c0-4.418-3.582-8-8-8h-8v-56c0-4.418-3.582-8-8-8h-112c-4.418 0-8 3.582-8 8v64c0 4.418 3.582 8 8 8h8v16h-8c-4.418 0-8 3.582-8 8v32c0 4.418 3.582 8 8 8h8v16h-32v16h480v-16zm-144-368h7.52c-4.073 36.429-34.864 63.983-71.52 64h-7.52c4.073-36.429 34.864-63.983 71.52-64zm-24-80h7.36c-3.906 23.107-23.926 40.015-47.36 40h-7.36c3.906-23.107 23.926-40.015 47.36-40zm-72 40c-23.434.015-43.454-16.893-47.36-40h7.36c23.434-.015 43.454 16.893 47.36 40zm0 104c-36.656-.017-67.447-27.571-71.52-64h7.52c36.656.017 67.447 27.571 71.52 64zm-80 224v16h-96v-16zm-112-64h96v16h-96zm0 32h96v16h-96zm0 64h96v16h-96zm112 48h-96v-16h96zm160-48v16h-96v-16zm-16-32v16h-96v-16zm-96-16v-16h88 8v16zm96-64h-96v-16h96zm-96-80h96v16h-96zm-16 32h96v16h-96zm0 80v-16h96v16zm112 128h-96v-16h96zm48-176c0-26.51 21.49-48 48-48s48 21.49 48 48-21.49 48-48 48-48-21.49-48-48zm0 64h96v16h-96zm112 112h-96v-16h96zm0-32h-96v-16h96zm0-32h-96v-16h88 8z"/><path d="m400 288c0 8.837-7.163 16-16 16v16c17.673 0 32-14.327 32-32z"/><path d="m352 288h16c0-8.837 7.163-16 16-16v-16c-17.673 0-32 14.327-32 32z"/><path d="m433.28 48c-12.932-2.218-23.062-12.348-25.28-25.28 0-4.418-3.582-8-8-8s-8 3.582-8 8c-2.218 12.932-12.348 23.062-25.28 25.28-4.418 0-8 3.582-8 8s3.582 8 8 8c12.932 2.218 23.062 12.348 25.28 25.28 0 4.418 3.582 8 8 8s8-3.582 8-8c2.218-12.932 12.348-23.062 25.28-25.28 4.418 0 8-3.582 8-8s-3.582-8-8-8zm-33.28 19.44c-3.104-4.463-6.977-8.336-11.44-11.44 4.463-3.104 8.336-6.977 11.44-11.44 3.104 4.463 6.977 8.336 11.44 11.44-4.463 3.104-8.336 6.977-11.44 11.44z"/><path d="m113.28 224c-12.932-2.218-23.062-12.348-25.28-25.28 0-4.418-3.582-8-8-8s-8 3.582-8 8c-2.218 12.932-12.348 23.062-25.28 25.28-4.418 0-8 3.582-8 8s3.582 8 8 8c12.932 2.218 23.062 12.348 25.28 25.28 0 4.418 3.582 8 8 8s8-3.582 8-8c2.218-12.932 12.348-23.062 25.28-25.28 4.418 0 8-3.582 8-8s-3.582-8-8-8zm-33.28 19.44c-3.104-4.463-6.977-8.336-11.44-11.44 4.463-3.104 8.336-6.977 11.44-11.44 3.104 4.463 6.977 8.336 11.44 11.44-4.463 3.104-8.336 6.977-11.44 11.44z"/><path d="m456 192v-24h-16v24h-24v16h24v24h16v-24h24v-16z"/><path d="m128 144v-8h-16v8c0 26.51 21.49 48 48 48v-16c-17.673 0-32-14.327-32-32z"/></svg>