<svg enable-background="new 0 0 480 480" viewBox="0 0 480 480" xmlns="http://www.w3.org/2000/svg"><path d="m424 256h-96c-4.418 0-8 3.582-8 8v16h-21.84l-50.16-28.64v-27.36h40c4.418 0 8-3.582 8-8v-48c0-4.418-3.582-8-8-8h-40v-32h16c17.673 0 32-14.327 32-32s-14.327-32-32-32h-48c-17.673 0-32 14.327-32 32s14.327 32 32 32h16v32h-40c-4.418 0-8 3.582-8 8v16h-24v-16c0-4.418-3.582-8-8-8h-96c-4.418 0-8 3.582-8 8v48c.014 2.676 1.365 5.168 3.6 6.64l2.8 1.92c8.538 5.658 18.558 8.664 28.8 8.64 8.027.027 15.947-1.837 23.12-5.44 4.971-2.473 10.448-3.76 16-3.76h29.68c4.418 0 8-3.582 8-8v-16h24v16c0 4.418 3.582 8 8 8h40v27.36l-52 29.68c-3.844 2.178-5.194 7.06-3.016 10.904.714 1.26 1.756 2.302 3.016 3.016l52 29.68v43.36h-16c-17.673 0-32 14.327-32 32s14.327 32 32 32h48c17.673 0 32-14.327 32-32s-14.327-32-32-32h-16v-16h128c4.418 0 8-3.582 8-8v-24h40c4.418 0 8-3.582 8-8v-48c0-4.418-3.582-8-8-8zm-280-48h-21.68c-8.021.023-15.93 1.884-23.12 5.44-11.231 5.621-24.586 4.954-35.2-1.76v-35.68h80zm72-96c-8.837 0-16-7.163-16-16s7.163-16 16-16h48c8.837 0 16 7.163 16 16s-7.163 16-16 16zm-16 96v-32h80v32zm64 176c8.837 0 16 7.163 16 16s-7.163 16-16 16h-48c-8.837 0-16-7.163-16-16s7.163-16 16-16zm-24-73.2-40-22.8 40-22.8 40 22.8zm128 25.2h-120v-11.36l50.16-28.64h21.84v16c0 4.418 3.582 8 8 8h40zm48-32h-80v-32h80z"/><path d="m48 64h88v16h-88z"/><path d="m48 96h64v16h-64z"/><path d="m472 48c4.418 0 8-3.582 8-8v-32c0-4.418-3.582-8-8-8h-464c-4.418 0-8 3.582-8 8v32c0 4.418 3.582 8 8 8h8v416h-16v16h480v-16h-16v-416zm-24 416h-416v-416h416zm-432-432v-16h448v16z"/><path d="m320 432h16v16h-16z"/><path d="m352 432h16v16h-16z"/><path d="m384 432h16v16h-16z"/><path d="m416 432h16v16h-16z"/></svg>