<svg enable-background="new 0 0 480.34 480.34" viewBox="0 0 480.34 480.34" xmlns="http://www.w3.org/2000/svg"><path d="m479.163 468.18-135.04-205.84v-102h8c13.255 0 24-10.745 24-24s-10.745-24-24-24h-8v-42.8l67.28-29.92c4.031-1.809 5.833-6.543 4.024-10.574-.912-2.034-2.632-3.594-4.744-4.306l-72-24c-2.441-.805-5.119-.388-7.2 1.12-2.098 1.493-3.348 3.905-3.36 6.48v104h-16v-24c0-13.255-10.745-24-24-24h-20.48c2.908-4.832 4.456-10.36 4.48-16v-24c0-13.255-10.745-24-24-24h-40c-4.418.013-7.989 3.606-7.976 8.024.004 1.242.297 2.466.856 3.576l7.12 14.32v22.08c.024 5.64 1.572 11.168 4.48 16h-28.48v-39.12c.299-12.063-8.154-22.58-20-24.88-13.069-2.21-25.456 6.592-27.666 19.662-.242 1.433-.354 2.885-.334 4.338v56c0 17.673 14.327 32 32 32h32v144h-8c-2.518 0-4.889 1.186-6.4 3.2l-45.6 60.8h-28c-2.56-.007-4.969 1.213-6.48 3.28l-104 144c-1.79 2.452-2.038 5.705-.64 8.4 1.378 2.659 4.125 4.326 7.12 4.32h464c2.932.008 5.633-1.588 7.04-4.16 1.429-2.475 1.429-5.525 0-8zm-135.04-448.72 41.92 13.92-41.92 18.64zm0 108.88h8c4.418 0 8 3.582 8 8s-3.582 8-8 8h-8zm-96-112c4.418 0 8 3.582 8 8v24c0 8.837-7.163 16-16 16s-16-7.163-16-16v-24c-.008-1.252-.309-2.485-.88-3.6l-2.16-4.4zm-80 80c-8.837 0-16-7.163-16-16v-56c0-2.339 1.023-4.56 2.8-6.08 1.808-1.612 4.25-2.318 6.64-1.92 4.021 1.023 6.764 4.736 6.56 8.88v47.12c0 4.418 3.582 8 8 8h112c4.418 0 8 3.582 8 8v32c0 4.418 3.582 8 8 8h24v16h-32c-8.837 0-16-7.163-16-16v-32h-16v48h-48v-40c0-4.418-3.582-8-8-8zm160 64v77.6l-1.28-2c-1.487-2.259-4.016-3.613-6.72-3.6h-16c-3.585-.187-6.856 2.037-8 5.44l-5.92 17.76-10.08-10.48v-89.04c4.861 2.82 10.38 4.31 16 4.32zm-96 16v72c-.012 2.126.823 4.17 2.32 5.68l2.4 2.32h-20.72v-96h48v88c-.012 2.126.823 4.17 2.32 5.68l2.4 2.32h-9.44l-11.28-11.28v-68.72zm-208 288 52-72h48l29.68 44.4 13.28-8.8-32-48c-1.533-2.332-4.171-3.696-6.96-3.6h-40.8l28.88-40h79.28l29.68 52c1.435 2.485 4.091 4.011 6.96 4h43.28l39.28 72zm309.04 0-26.16-48h33.12l21.6 28.8 12.8-9.6-24-32c-1.511-2.014-3.882-3.2-6.4-3.2h-46.16l-10.8-19.84c-1.407-2.572-4.108-4.168-7.04-4.16h-43.36l-29.68-52c-1.435-2.485-4.091-4.011-6.96-4h-40l36-48h100c3.585.187 6.856-2.037 8-5.44l5.76-18.56h5.92l141.52 216z"/><path d="m88.123 112.34c-3.823-.002-7.624.564-11.28 1.68-8.252-6.291-18.344-9.692-28.72-9.68-26.51 0-48 21.49-48 48v8h128v-8c0-22.091-17.908-40-40-40zm-70.96 32c3.646-14.12 16.377-23.989 30.96-24 8.057.048 15.799 3.133 21.68 8.64l3.84 3.52 4.8-2.08c12.19-5.206 26.292.455 31.498 12.645.179.42.347.846.502 1.275z"/><path d="m440.123 176.34c-1.74.017-3.478.151-5.2.4-7.863-5.478-17.217-8.41-26.8-8.4-26.51 0-48 21.49-48 48v8h120v-8c0-22.091-17.908-40-40-40zm-62.96 32c4.531-17.082 22.052-27.258 39.134-22.727 4.249 1.127 8.22 3.117 11.666 5.847l3.04 2.4 3.76-.88c1.76-.396 3.556-.61 5.36-.64 10.175-.005 19.248 6.406 22.64 16z"/><path d="m112.123 200.34c-22.091 0-40 17.909-40 40v8h80v-8c0-22.091-17.908-40-40-40zm-22.64 32c4.399-12.504 18.101-19.074 30.604-14.676 6.864 2.414 12.261 7.812 14.676 14.676z"/></svg>