<?xml version="1.0" encoding="iso-8859-1"?>
<!-- Generator: Adobe Illustrator 19.0.0, SVG Export Plug-In . SVG Version: 6.00 Build 0)  -->
<svg version="1.1" id="Capa_1" xmlns="http://www.w3.org/2000/svg" xmlns:xlink="http://www.w3.org/1999/xlink" x="0px" y="0px"
	 viewBox="0 0 480.34 480.34" style="enable-background:new 0 0 480.34 480.34;" xml:space="preserve">
<g>
	<g>
		<path d="M479.163,468.18l-135.04-205.84v-102h8c13.255,0,24-10.745,24-24s-10.745-24-24-24h-8v-42.8l67.28-29.92
			c4.031-1.809,5.833-6.543,4.024-10.574c-0.912-2.034-2.632-3.594-4.744-4.306l-72-24c-2.441-0.805-5.119-0.388-7.2,1.12
			c-2.098,1.493-3.348,3.905-3.36,6.48v104h-16v-24c0-13.255-10.745-24-24-24h-20.48c2.908-4.832,4.456-10.36,4.48-16v-24
			c0-13.255-10.745-24-24-24h-40c-4.418,0.013-7.989,3.606-7.976,8.024c0.004,1.242,0.297,2.466,0.856,3.576l7.12,14.32v22.08
			c0.024,5.64,1.572,11.168,4.48,16h-28.48V25.22c0.299-12.063-8.154-22.58-20-24.88c-13.069-2.21-25.456,6.592-27.666,19.662
			c-0.242,1.433-0.354,2.885-0.334,4.338v56c0,17.673,14.327,32,32,32h32v144h-8c-2.518,0-4.889,1.186-6.4,3.2l-45.6,60.8h-28
			c-2.56-0.007-4.969,1.213-6.48,3.28l-104,144c-1.79,2.452-2.038,5.705-0.64,8.4c1.378,2.659,4.125,4.326,7.12,4.32h464
			c2.932,0.008,5.633-1.588,7.04-4.16C480.592,473.705,480.592,470.655,479.163,468.18z M344.123,19.46l41.92,13.92l-41.92,18.64
			V19.46z M344.123,128.34h8c4.418,0,8,3.582,8,8s-3.582,8-8,8h-8V128.34z M248.123,16.34c4.418,0,8,3.582,8,8v24
			c0,8.837-7.163,16-16,16s-16-7.163-16-16v-24c-0.008-1.252-0.309-2.485-0.88-3.6l-2.16-4.4H248.123z M168.123,96.34
			c-8.837,0-16-7.163-16-16v-56c0-2.339,1.023-4.56,2.8-6.08c1.808-1.612,4.25-2.318,6.64-1.92c4.021,1.023,6.764,4.736,6.56,8.88
			v47.12c0,4.418,3.582,8,8,8h112c4.418,0,8,3.582,8,8v32c0,4.418,3.582,8,8,8h24v16h-32c-8.837,0-16-7.163-16-16v-32h-16v48h-48
			v-40c0-4.418-3.582-8-8-8H168.123z M328.123,160.34v77.6l-1.28-2c-1.487-2.259-4.016-3.613-6.72-3.6h-16
			c-3.585-0.187-6.856,2.037-8,5.44l-5.92,17.76l-10.08-10.48v-89.04c4.861,2.82,10.38,4.31,16,4.32H328.123z M232.123,176.34v72
			c-0.012,2.126,0.823,4.17,2.32,5.68l2.4,2.32h-20.72v-96h48v88c-0.012,2.126,0.823,4.17,2.32,5.68l2.4,2.32h-9.44l-11.28-11.28
			v-68.72H232.123z M24.123,464.34l52-72h48l29.68,44.4l13.28-8.8l-32-48c-1.533-2.332-4.171-3.696-6.96-3.6h-40.8l28.88-40h79.28
			l29.68,52c1.435,2.485,4.091,4.011,6.96,4h43.28l39.28,72H24.123z M333.163,464.34l-26.16-48h33.12l21.6,28.8l12.8-9.6l-24-32
			c-1.511-2.014-3.882-3.2-6.4-3.2h-46.16l-10.8-19.84c-1.407-2.572-4.108-4.168-7.04-4.16h-43.36l-29.68-52
			c-1.435-2.485-4.091-4.011-6.96-4h-40l36-48h100c3.585,0.187,6.856-2.037,8-5.44l5.76-18.56h5.92l141.52,216H333.163z"/>
	</g>
</g>
<g>
	<g>
		<path d="M88.123,112.34c-3.823-0.002-7.624,0.564-11.28,1.68c-8.252-6.291-18.344-9.692-28.72-9.68c-26.51,0-48,21.49-48,48v8h128
			v-8C128.123,130.249,110.215,112.34,88.123,112.34z M17.163,144.34c3.646-14.12,16.377-23.989,30.96-24
			c8.057,0.048,15.799,3.133,21.68,8.64l3.84,3.52l4.8-2.08c12.19-5.206,26.292,0.455,31.498,12.645
			c0.179,0.42,0.347,0.846,0.502,1.275H17.163z"/>
	</g>
</g>
<g>
	<g>
		<path d="M440.123,176.34c-1.74,0.017-3.478,0.151-5.2,0.4c-7.863-5.478-17.217-8.41-26.8-8.4c-26.51,0-48,21.49-48,48v8h120v-8
			C480.123,194.249,462.215,176.34,440.123,176.34z M377.163,208.34c4.531-17.082,22.052-27.258,39.134-22.727
			c4.249,1.127,8.22,3.117,11.666,5.847l3.04,2.4l3.76-0.88c1.76-0.396,3.556-0.61,5.36-0.64c10.175-0.005,19.248,6.406,22.64,16
			H377.163z"/>
	</g>
</g>
<g>
	<g>
		<path d="M112.123,200.34c-22.091,0-40,17.909-40,40v8h80v-8C152.123,218.249,134.215,200.34,112.123,200.34z M89.483,232.34
			c4.399-12.504,18.101-19.074,30.604-14.676c6.864,2.414,12.261,7.812,14.676,14.676H89.483z"/>
	</g>
</g>
<g>
</g>
<g>
</g>
<g>
</g>
<g>
</g>
<g>
</g>
<g>
</g>
<g>
</g>
<g>
</g>
<g>
</g>
<g>
</g>
<g>
</g>
<g>
</g>
<g>
</g>
<g>
</g>
<g>
</g>
</svg>
