<?xml version="1.0" encoding="iso-8859-1"?>
<!-- Generator: Adobe Illustrator 19.0.0, SVG Export Plug-In . SVG Version: 6.00 Build 0)  -->
<svg version="1.1" id="Capa_1" xmlns="http://www.w3.org/2000/svg" xmlns:xlink="http://www.w3.org/1999/xlink" x="0px" y="0px"
	 viewBox="0 0 480.217 480.217" style="enable-background:new 0 0 480.217 480.217;" xml:space="preserve">
<g>
	<g>
		<path d="M368.989,153.577l21.52-28.72c2.651-3.535,1.935-8.549-1.6-11.2l-32-24c-3.535-2.651-8.549-1.935-11.2,1.6l-21.36,28.8
			c-21.118-11.747-44.275-19.376-68.24-22.48v-8c22.958-13.255,30.824-42.611,17.569-65.569
			C260.423,1.05,231.067-6.816,208.109,6.439c-22.958,13.255-30.824,42.611-17.569,65.569c4.213,7.297,10.272,13.356,17.569,17.569
			v8c-23.965,3.104-47.122,10.733-68.24,22.48l-21.36-28.8c-2.651-3.535-7.665-4.251-11.2-1.6l-32,24
			c-3.535,2.651-4.251,7.665-1.6,11.2l21.52,28.72c-74.359,75.597-73.357,197.16,2.24,271.52s197.16,73.357,271.52-2.24
			C442.482,348.141,442.482,228.293,368.989,153.577z M353.709,107.257l19.2,14.4l-16,20.96c-5.969-5.227-12.247-10.089-18.8-14.56
			L353.709,107.257z M200.109,48.057c0.019-17.673,14.361-31.985,32.034-31.966c17.673,0.019,31.985,14.361,31.966,32.034
			c-0.008,7.782-2.852,15.295-8,21.132v-13.2c0-4.418-3.582-8-8-8h-32c-4.418,0-8,3.582-8,8v13.2
			C202.945,63.403,200.1,55.863,200.109,48.057z M240.109,64.057v32c-2.64,0-5.28,0-8,0c-2.72,0-5.36,0-8,0v-32H240.109z
			 M90.989,121.657l19.52-14.4l15.6,20.8c-6.663,4.461-13.048,9.323-19.12,14.56L90.989,121.657z M232.109,464.057
			c-97.202,0-176-78.798-176-176s78.798-176,176-176s176,78.798,176,176S329.311,464.057,232.109,464.057z"/>
	</g>
</g>
<g>
	<g>
		<path d="M232.109,128.057c-88.366,0-160,71.634-160,160s71.634,160,160,160s160-71.634,160-160S320.474,128.057,232.109,128.057z
			 M343.069,379.737l-25.28-25.36l-11.36,11.36l25.76,25.68c-24.806,24.182-57.497,38.61-92.08,40.64v-40h-16v40
			c-34.498-1.856-67.179-16.053-92.08-40l25.76-25.68l-11.36-11.36l-25.28,25.36c-21.522-25.933-33.22-58.62-33.04-92.32h40v-16
			h-39.04c3.654-31.683,17.724-61.256,40-84.08l17.68,17.76l11.36-11.36l-17.36-17.28c23.59-19.499,52.802-30.937,83.36-32.64v23.6
			h16v-23.6c30.67,1.635,60.003,13.077,83.68,32.64l-17.36,17.28l11.36,11.36l17.68-17.76c22.276,22.824,36.346,52.397,40,84.08
			h-39.36v16h40C376.139,321.538,364.45,353.973,343.069,379.737z"/>
	</g>
</g>
<g>
	<g>
		<path d="M232.109,184.057c-48.601,0-88,39.399-88,88v48c0,13.255,10.745,24,24,24h8v24c0,4.418,3.582,8,8,8h96
			c4.418,0,8-3.582,8-8v-24h8c13.255,0,24-10.745,24-24v-48C320.109,223.456,280.71,184.057,232.109,184.057z M304.109,320.057
			c0,4.418-3.582,8-8,8h-16c-4.418,0-8,3.582-8,8v24h-16v-24h-16v24h-16v-24h-16v24h-16v-24c0-4.418-3.582-8-8-8h-16
			c-4.418,0-8-3.582-8-8v-48c0-39.765,32.236-72,72-72c39.765,0,72,32.235,72,72V320.057z"/>
	</g>
</g>
<g>
	<g>
		<path d="M200.109,264.057c-13.255,0-24,10.745-24,24s10.745,24,24,24s24-10.745,24-24S213.363,264.057,200.109,264.057z
			 M200.109,296.057c-4.418,0-8-3.582-8-8s3.582-8,8-8s8,3.582,8,8S204.527,296.057,200.109,296.057z"/>
	</g>
</g>
<g>
	<g>
		<path d="M264.109,264.057c-13.255,0-24,10.745-24,24s10.745,24,24,24c13.255,0,24-10.745,24-24S277.363,264.057,264.109,264.057z
			 M264.109,296.057c-4.418,0-8-3.582-8-8s3.582-8,8-8s8,3.582,8,8S268.527,296.057,264.109,296.057z"/>
	</g>
</g>
<g>
	<g>
		<rect x="360.109" y="32.057" width="16" height="32"/>
	</g>
</g>
<g>
	<g>
		<rect x="408.109" y="96.057" width="32" height="16"/>
	</g>
</g>
<g>
	<g>
		<rect x="395.189" y="52.058" transform="matrix(0.7071 -0.7071 0.7071 0.7071 78.2488 309.0241)" width="33.92" height="16"/>
	</g>
</g>
<g>
</g>
<g>
</g>
<g>
</g>
<g>
</g>
<g>
</g>
<g>
</g>
<g>
</g>
<g>
</g>
<g>
</g>
<g>
</g>
<g>
</g>
<g>
</g>
<g>
</g>
<g>
</g>
<g>
</g>
</svg>
