<svg enable-background="new 0 0 480.217 480.217" viewBox="0 0 480.217 480.217" xmlns="http://www.w3.org/2000/svg"><path d="m368.989 153.577 21.52-28.72c2.651-3.535 1.935-8.549-1.6-11.2l-32-24c-3.535-2.651-8.549-1.935-11.2 1.6l-21.36 28.8c-21.118-11.747-44.275-19.376-68.24-22.48v-8c22.958-13.255 30.824-42.611 17.569-65.569-13.255-22.958-42.611-30.824-65.569-17.569s-30.824 42.611-17.569 65.569c4.213 7.297 10.272 13.356 17.569 17.569v8c-23.965 3.104-47.122 10.733-68.24 22.48l-21.36-28.8c-2.651-3.535-7.665-4.251-11.2-1.6l-32 24c-3.535 2.651-4.251 7.665-1.6 11.2l21.52 28.72c-74.359 75.597-73.357 197.16 2.24 271.52s197.16 73.357 271.52-2.24c73.493-74.716 73.493-194.564 0-269.28zm-15.28-46.32 19.2 14.4-16 20.96c-5.969-5.227-12.247-10.089-18.8-14.56zm-153.6-59.2c.019-17.673 14.361-31.985 32.034-31.966s31.985 14.361 31.966 32.034c-.008 7.782-2.852 15.295-8 21.132v-13.2c0-4.418-3.582-8-8-8h-32c-4.418 0-8 3.582-8 8v13.2c-5.164-5.854-8.009-13.394-8-21.2zm40 16v32c-2.64 0-5.28 0-8 0s-5.36 0-8 0v-32zm-149.12 57.6 19.52-14.4 15.6 20.8c-6.663 4.461-13.048 9.323-19.12 14.56zm141.12 342.4c-97.202 0-176-78.798-176-176s78.798-176 176-176 176 78.798 176 176-78.798 176-176 176z"/><path d="m232.109 128.057c-88.366 0-160 71.634-160 160s71.634 160 160 160 160-71.634 160-160-71.635-160-160-160zm110.96 251.68-25.28-25.36-11.36 11.36 25.76 25.68c-24.806 24.182-57.497 38.61-92.08 40.64v-40h-16v40c-34.498-1.856-67.179-16.053-92.08-40l25.76-25.68-11.36-11.36-25.28 25.36c-21.522-25.933-33.22-58.62-33.04-92.32h40v-16h-39.04c3.654-31.683 17.724-61.256 40-84.08l17.68 17.76 11.36-11.36-17.36-17.28c23.59-19.499 52.802-30.937 83.36-32.64v23.6h16v-23.6c30.67 1.635 60.003 13.077 83.68 32.64l-17.36 17.28 11.36 11.36 17.68-17.76c22.276 22.824 36.346 52.397 40 84.08h-39.36v16h40c.03 33.481-11.659 65.916-33.04 91.68z"/><path d="m232.109 184.057c-48.601 0-88 39.399-88 88v48c0 13.255 10.745 24 24 24h8v24c0 4.418 3.582 8 8 8h96c4.418 0 8-3.582 8-8v-24h8c13.255 0 24-10.745 24-24v-48c0-48.601-39.399-88-88-88zm72 136c0 4.418-3.582 8-8 8h-16c-4.418 0-8 3.582-8 8v24h-16v-24h-16v24h-16v-24h-16v24h-16v-24c0-4.418-3.582-8-8-8h-16c-4.418 0-8-3.582-8-8v-48c0-39.765 32.236-72 72-72 39.765 0 72 32.235 72 72z"/><path d="m200.109 264.057c-13.255 0-24 10.745-24 24s10.745 24 24 24 24-10.745 24-24-10.746-24-24-24zm0 32c-4.418 0-8-3.582-8-8s3.582-8 8-8 8 3.582 8 8-3.582 8-8 8z"/><path d="m264.109 264.057c-13.255 0-24 10.745-24 24s10.745 24 24 24 24-10.745 24-24-10.746-24-24-24zm0 32c-4.418 0-8-3.582-8-8s3.582-8 8-8 8 3.582 8 8-3.582 8-8 8z"/><path d="m360.109 32.057h16v32h-16z"/><path d="m408.109 96.057h32v16h-32z"/><path d="m395.189 52.058h33.92v16h-33.92z" transform="matrix(.7071 -.7071 .7071 .7071 78.2488 309.0241)"/></svg>