<svg enable-background="new 0 0 480 480" viewBox="0 0 480 480" xmlns="http://www.w3.org/2000/svg"><path d="m400 232h-40v-16c0-4.418-3.582-8-8-8h-288c-4.418 0-8 3.582-8 8v89.84c-.13 43.758 21.026 84.847 56.72 110.16h-72.72c-4.418 0-8 3.582-8 8 0 30.928 25.072 56 56 56h240c30.928 0 56-25.072 56-56 0-4.418-3.582-8-8-8h-72.72c15.398-10.969 28.34-25.028 38-41.28l72.4-23.52c15.806-5.753 26.325-20.779 26.32-37.6v-41.6c0-22.091-17.909-40-40-40zm-40 73.84v-25.84h28.8c1.767 0 3.2 1.433 3.2 3.2v19.28c.018 1.596-1.142 2.961-2.72 3.2h-1.44l-27.84 10.96c0-3.6 0-7.2 0-10.8zm7.2 126.16c-3.802 18.627-20.189 32.004-39.2 32h-240c-19.011.004-35.398-13.373-39.2-32h95.2zm-23.2-126.16c.163 48.274-28.94 91.834-73.6 110.16h-124.8c-44.66-18.326-73.763-61.886-73.6-110.16v-81.84h272zm80 7.76c-.022 9.965-6.198 18.879-15.52 22.4l-57.52 18.64c2.503-6.498 4.482-13.186 5.92-20l35.92-13.44c8.859-1.856 15.203-9.669 15.2-18.72v-19.28c-.044-10.586-8.614-19.156-19.2-19.2h-28.8v-16h40c13.255 0 24 10.745 24 24z"/><path d="m88 240h16v16h-16z"/><path d="m88 272h16v48h-16z"/><path d="m248 0v40c0 13.255-10.745 24-24 24h-32c-39.349.011-73.908 26.143-84.64 64-29.103 2.419-51.46 26.797-51.36 56v8h16v-8c.034-19.134 13.614-35.565 32.4-39.2 0 2.4-.4 4.8-.4 7.2v16h16v-16c0-39.765 32.236-72 72-72h32c22.091 0 40-17.909 40-40v-40z"/><path d="m432 0v32c0 26.51-21.49 48-48 48-33.27-.128-61.089 25.257-64 58.4-5.195-1.545-10.581-2.352-16-2.4v16c22.091 0 40 17.909 40 40h16c-.012-18.31-8.974-35.457-24-45.92v-2.08c0-26.51 21.49-48 48-48 35.346 0 64-28.654 64-64v-32z"/></svg>