<?xml version="1.0" encoding="iso-8859-1"?>
<!-- Generator: Adobe Illustrator 19.0.0, SVG Export Plug-In . SVG Version: 6.00 Build 0)  -->
<svg version="1.1" id="Capa_1" xmlns="http://www.w3.org/2000/svg" xmlns:xlink="http://www.w3.org/1999/xlink" x="0px" y="0px"
	 viewBox="0 0 480 480" style="enable-background:new 0 0 480 480;" xml:space="preserve">
<g>
	<g>
		<path d="M400,232h-40v-16c0-4.418-3.582-8-8-8H64c-4.418,0-8,3.582-8,8v89.84c-0.13,43.758,21.026,84.847,56.72,110.16H40
			c-4.418,0-8,3.582-8,8c0,30.928,25.072,56,56,56h240c30.928,0,56-25.072,56-56c0-4.418-3.582-8-8-8h-72.72
			c15.398-10.969,28.34-25.028,38-41.28l72.4-23.52c15.806-5.753,26.325-20.779,26.32-37.6V272C440,249.909,422.091,232,400,232z
			 M360,305.84V280h28.8c1.767,0,3.2,1.433,3.2,3.2v0v19.28c0.018,1.596-1.142,2.961-2.72,3.2h-1.44L360,316.64
			C360,313.04,360,309.44,360,305.84z M367.2,432c-3.802,18.627-20.189,32.004-39.2,32H88c-19.011,0.004-35.398-13.373-39.2-32H144
			H367.2z M344,305.84c0.163,48.274-28.94,91.834-73.6,110.16H145.6c-44.66-18.326-73.763-61.886-73.6-110.16V224h272V305.84z
			 M424,313.6c-0.022,9.965-6.198,18.879-15.52,22.4l-57.52,18.64c2.503-6.498,4.482-13.186,5.92-20l35.92-13.44
			c8.859-1.856,15.203-9.669,15.2-18.72V283.2c-0.044-10.586-8.614-19.156-19.2-19.2H360v-16h40c13.255,0,24,10.745,24,24V313.6z"/>
	</g>
</g>
<g>
	<g>
		<rect x="88" y="240" width="16" height="16"/>
	</g>
</g>
<g>
	<g>
		<rect x="88" y="272" width="16" height="48"/>
	</g>
</g>
<g>
	<g>
		<path d="M248,0v40c0,13.255-10.745,24-24,24h-32c-39.349,0.011-73.908,26.143-84.64,64C78.257,130.419,55.9,154.797,56,184v8h16
			v-8c0.034-19.134,13.614-35.565,32.4-39.2c0,2.4-0.4,4.8-0.4,7.2v16h16v-16c0-39.765,32.236-72,72-72h32c22.091,0,40-17.909,40-40
			V0H248z"/>
	</g>
</g>
<g>
	<g>
		<path d="M432,0v32c0,26.51-21.49,48-48,48c-33.27-0.128-61.089,25.257-64,58.4c-5.195-1.545-10.581-2.352-16-2.4v16
			c22.091,0,40,17.909,40,40h16c-0.012-18.31-8.974-35.457-24-45.92V144c0-26.51,21.49-48,48-48c35.346,0,64-28.654,64-64V0H432z"/>
	</g>
</g>
<g>
</g>
<g>
</g>
<g>
</g>
<g>
</g>
<g>
</g>
<g>
</g>
<g>
</g>
<g>
</g>
<g>
</g>
<g>
</g>
<g>
</g>
<g>
</g>
<g>
</g>
<g>
</g>
<g>
</g>
</svg>
