<svg enable-background="new 0 0 480.412 480.412" viewBox="0 0 480.412 480.412" xmlns="http://www.w3.org/2000/svg"><circle cx="88.206" cy="144" r="8"/><path d="m456.206 48c4.418 0 8-3.582 8-8v-32c0-4.418-3.582-8-8-8h-400c-4.418 0-8 3.582-8 8v32c0 4.418 3.582 8 8 8h8v32h-8c-17.673 0-32 14.327-32 32v56c.073 13.569 5.886 26.474 16 35.52-14.517 6.336-23.928 20.641-24 36.48v232c0 4.418 3.582 8 8 8h112c2.949-.008 5.654-1.637 7.04-4.24 1.307-2.546 1.155-5.597-.4-8l-14.64-22.16v-85.6h120v59.44l-76.08 45.68c-4.026 1.82-5.815 6.559-3.995 10.585s6.559 5.815 10.585 3.995c.497-.225.97-.499 1.411-.82l76.08-45.52 75.92 45.52c1.235.733 2.644 1.12 4.08 1.12 4.418-.001 7.999-3.584 7.998-8.002-.001-2.823-1.49-5.437-3.918-6.878l-76.08-45.68v-59.44h200v-16h-16v-296zm-416 64c0-8.837 7.163-16 16-16h60c-6.265 9.953-17.199 15.994-28.96 16h-31.04c-2.518 0-4.889 1.186-6.4 3.2l-9.6 12.8zm0 42.64 20-26.64h27.04c6.893-.044 13.703-1.515 20-4.32l10.32 36.32h-5.36c-4.418 0-8 3.582-8 8 0 17.673-14.327 32-32 32s-32-14.327-32-32zm52.32 309.36-12.32-18.4v-93.6h-16v96c.012 1.568.485 3.098 1.36 4.4l8 11.6h-41.36v-136h80v120c.012 1.568.485 3.098 1.36 4.4l8 11.6zm33.36-213.68c-2.3-2.27-5.741-2.933-8.72-1.68-2.987 1.227-4.944 4.13-4.96 7.36v56h-80v-72c0-13.255 10.745-24 24-24h8v80h16v-80h20.08c10.616-.019 20.804 4.183 28.32 11.68l33.92 34c3.111 3.137 8.177 3.158 11.314.046.016-.015.031-.031.046-.046l36-36c3.244-3.736 8.904-4.135 12.64-.891s4.135 8.904.891 12.64c-.276.318-.573.615-.891.891l-36 36c-10.225 9.855-26.415 9.855-36.64 0zm42.32-5.6v-28.72h28.72zm40 30.56v20.72h-28c6.644-1.953 12.712-5.495 17.68-10.32zm-52 20.72h-28v-20.72l10.32 10.4c4.968 4.825 11.036 8.367 17.68 10.32zm276 48h-304v-32h88c4.418 0 8-3.582 8-8v-44.72l9.68-9.6c9.148-9.163 9.739-23.81 1.36-33.68h108.96v32h-48c-4.418 0-8 3.582-8 8v48c0 4.418 3.582 8 8 8h112c4.418 0 8-3.582 8-8v-48c0-4.418-3.582-8-8-8h-48v-40c0-4.418-3.582-8-8-8h-88v-40h48c4.418 0 8-3.582 8-8v-48c0-4.418-3.582-8-8-8h-112c-4.418 0-8 3.582-8 8v48c0 4.418 3.582 8 8 8h48v40h-88c-4.418 0-8 3.582-8 8v20.72l-12.32-12.32c-8.752-8.834-20.219-14.469-32.56-16 6.333-6.793 10.581-15.262 12.24-24.4h8.64c2.518 0 4.889-1.186 6.4-3.2 1.485-1.995 1.958-4.567 1.28-6.96l-14.64-51.28c7.265-6.594 12.461-15.153 14.96-24.64.607-2.393.076-4.932-1.44-6.88-1.578-2-4.014-3.129-6.56-3.04h-48v-32h352zm-32-80v32h-96v-32zm-192-120v-32h96v32zm-144-112v-16h384v16z"/><path d="m192.206 64h80v16h-80z"/><path d="m288.206 64h32v16h-32z"/></svg>