<?xml version="1.0" encoding="iso-8859-1"?>
<!-- Generator: Adobe Illustrator 19.0.0, SVG Export Plug-In . SVG Version: 6.00 Build 0)  -->
<svg version="1.1" id="Capa_1" xmlns="http://www.w3.org/2000/svg" xmlns:xlink="http://www.w3.org/1999/xlink" x="0px" y="0px"
	 viewBox="0 0 481.28 481.28" style="enable-background:new 0 0 481.28 481.28;" xml:space="preserve">
<g>
	<g>
		<path d="M297.28,136.64c0,30.928-25.072,56-56,56v16c39.765,0,72-32.236,72-72H297.28z"/>
	</g>
</g>
<g>
	<g>
		<path d="M169.28,136.64h16c0-30.928,25.072-56,56-56v-16C201.516,64.64,169.28,96.875,169.28,136.64z"/>
	</g>
</g>
<g>
	<g>
		<path d="M255.76,134.96l-26.32-4.4c-2.739-0.221-4.781-2.621-4.56-5.36c0.221-2.739,2.621-4.781,5.36-4.56h22.08
			c2.739,0,4.96,2.221,4.96,4.96v3.04h16v-3.04c-0.044-11.558-9.402-20.916-20.96-20.96h-3.04v-8h-16v8h-3.04
			c-11.575-0.16-21.088,9.093-21.248,20.668c-0.145,10.469,7.457,19.439,17.808,21.012l26.32,4.4c2.739,0.221,4.781,2.621,4.56,5.36
			c-0.221,2.739-2.621,4.781-5.36,4.56h-22.08c-2.739,0-4.96-2.221-4.96-4.96v-3.04h-16v3.04c0.044,11.558,9.402,20.916,20.96,20.96
			h3.04v8h16v-8h3.04c11.575,0.16,21.088-9.093,21.248-20.668C273.713,145.504,266.111,136.533,255.76,134.96z"/>
	</g>
</g>
<g>
	<g>
		<path d="M241.28,32.64c-57.438,0-104,46.562-104,104s46.562,104,104,104s104-46.562,104-104S298.718,32.64,241.28,32.64z
			 M241.28,224.64c-48.601,0-88-39.399-88-88s39.399-88,88-88s88,39.399,88,88S289.881,224.64,241.28,224.64z"/>
	</g>
</g>
<g>
	<g>
		<path d="M161.28,336.64c0,30.928-25.072,56-56,56v16c39.765,0,72-32.236,72-72H161.28z"/>
	</g>
</g>
<g>
	<g>
		<path d="M33.28,336.64h16c0-30.928,25.072-56,56-56v-16C65.515,264.64,33.28,296.875,33.28,336.64z"/>
	</g>
</g>
<g>
	<g>
		<path d="M105.28,232.64c-57.438,0-104,46.562-104,104s46.562,104,104,104s104-46.562,104-104S162.718,232.64,105.28,232.64z
			 M105.28,424.64c-48.601,0-88-39.399-88-88c0-48.601,39.399-88,88-88s88,39.399,88,88
			C193.28,385.241,153.881,424.64,105.28,424.64z"/>
	</g>
</g>
<g>
	<g>
		<path d="M433.28,336.64c0,30.928-25.072,56-56,56v16c39.765,0,72-32.236,72-72H433.28z"/>
	</g>
</g>
<g>
	<g>
		<path d="M305.28,336.64h16c0-30.928,25.072-56,56-56v-16C337.516,264.64,305.28,296.875,305.28,336.64z"/>
	</g>
</g>
<g>
	<g>
		<path d="M377.28,232.64c-57.438,0-104,46.562-104,104s46.562,104,104,104s104-46.562,104-104S434.718,232.64,377.28,232.64z
			 M377.28,424.64c-48.601,0-88-39.399-88-88c0-48.601,39.399-88,88-88c48.601,0,88,39.399,88,88
			C465.28,385.241,425.881,424.64,377.28,424.64z"/>
	</g>
</g>
<g>
	<g>
		<path d="M109.28,368.64c-6.295,0-12.223-2.964-16-8h12v-16h-16v-8h16v-16H93.36c6.573-8.822,19.054-10.645,27.875-4.071
			c0.842,0.627,1.632,1.32,2.365,2.071l11.36-11.2c-13.841-14.15-36.533-14.399-50.682-0.558c-3.938,3.852-6.935,8.56-8.758,13.758
			H65.28v16h8v8h-8v16h10.16c5.113,14.319,18.636,23.91,33.84,24c9.672,0.038,18.942-3.861,25.68-10.8l-11.44-11.2
			C119.785,366.49,114.644,368.656,109.28,368.64z"/>
	</g>
</g>
<g>
	<g>
		<path d="M369.28,352.64v-8h16v-16h-16v-12c0.006-6.627,5.383-11.995,12.011-11.99c3.176,0.003,6.222,1.265,8.469,3.509
			l11.52-11.52c-5.274-5.218-12.422-8.1-19.84-8c-15.464-0.088-28.071,12.376-28.16,27.84c0,0.053,0,0.107,0,0.16v12h-8v16h8v8
			c0,4.418-3.582,8-8,8s-8,3.582-8,8s3.582,8,8,8h48v-16h-25.36C368.824,358.07,369.284,355.365,369.28,352.64z"/>
	</g>
</g>
<g>
	<g>
		<path d="M204.48,444.8l-3.2,15.6c5.36,1.12,10.88,2.08,16.4,2.72l2-16C214.48,446.64,209.28,445.76,204.48,444.8z"/>
	</g>
</g>
<g>
	<g>
		<path d="M175.12,436l-5.84,14.96c5.2,2,10.48,3.84,16,5.36l4.56-15.28C184.72,439.6,179.84,437.92,175.12,436z"/>
	</g>
</g>
<g>
	<g>
		<path d="M250.16,448.64c-4.32,0-8.72,0-13.12,0h-2.24l-0.56,16h2.32c4.8,0,9.6,0,14.32,0L250.16,448.64z"/>
	</g>
</g>
<g>
	<g>
		<path d="M280,444.48c-4.4,1.2-9.52,2.08-14.72,2.72l2,16c5.52-0.64,11.04-1.6,16-2.72L280,444.48z"/>
	</g>
</g>
<g>
	<g>
		<path d="M309.84,435.76c-4.72,1.92-9.6,3.6-14.48,5.04l4.64,15.36c5.28-1.6,10.56-3.44,16-5.52L309.84,435.76z"/>
	</g>
</g>
<g>
	<g>
		<path d="M428.48,176l-14.88,6.08c1.92,4.72,3.68,9.52,5.2,14.4l15.28-4.48C432.4,186.8,430.56,181.52,428.48,176z"/>
	</g>
</g>
<g>
	<g>
		<path d="M438.32,208.64l-16,3.44c1.12,4.96,2,10,2.72,15.04l16.24-2.48C440.56,219.12,439.52,213.6,438.32,208.64z"/>
	</g>
</g>
<g>
	<g>
		<path d="M420.48,159.12c-2.24-4.32-4.56-8.4-7.04-12.48l-13.6,8.4c2.24,3.68,4.4,7.52,6.48,11.44l0.96,1.92l14.32-7.2
			L420.48,159.12z"/>
	</g>
</g>
<g>
	<g>
		<path d="M393.76,119.84l-12.08,10.48c3.6,3.84,6.64,7.84,9.6,12l12.88-9.52C400.96,128.4,397.44,124,393.76,119.84z"/>
	</g>
</g>
<g>
	<g>
		<path d="M369.92,96.64l-10.16,12.4c3.92,3.2,8,6.64,11.44,10.16l11.12-11.44C378.32,103.84,374.32,99.76,369.92,96.64z"/>
	</g>
</g>
<g>
	<g>
		<path d="M92.56,120.64c-3.76,4.08-7.44,8-10.88,12.64l12.56,9.92c3.04-3.68,6.56-7.6,10-11.28L92.56,120.64z"/>
	</g>
</g>
<g>
	<g>
		<path d="M117.28,98.64c-4.4,3.36-8.72,6.96-12.8,10.64l10.72,11.92c3.754-3.448,7.679-6.706,11.76-9.76L117.28,98.64z"/>
	</g>
</g>
<g>
	<g>
		<path d="M71.92,147.36l-1.28,1.68c-2.64,4.08-5.04,8-7.36,12.24l14,8c2.08-3.84,4.32-7.6,6.8-11.28l1.2-1.84L71.92,147.36z"/>
	</g>
</g>
<g>
	<g>
		<path d="M55.84,176.16c-2.24,5.04-4.32,10.32-6.16,15.52l15.04,5.28c1.68-4.8,3.6-9.6,5.68-14.24L55.84,176.16z"/>
	</g>
</g>
<g>
	<g>
		<path d="M45.04,207.6c-1.68,5.36-2.8,10.8-3.76,16.32l16,2.72c0.88-5.04,1.92-10.08,3.2-15.04L45.04,207.6z"/>
	</g>
</g>
<g>
	<g>
		<polygon points="425.28,40.64 425.28,16.64 409.28,16.64 409.28,40.64 385.28,40.64 385.28,56.64 409.28,56.64 409.28,80.64 
			425.28,80.64 425.28,56.64 449.28,56.64 449.28,40.64 		"/>
	</g>
</g>
<g>
	<g>
		<path d="M74.56,88.64c-12.932-2.218-23.062-12.348-25.28-25.28c0-4.418-3.582-8-8-8s-8,3.582-8,8
			C31.062,76.292,20.932,86.422,8,88.64c-4.418,0-8,3.582-8,8s3.582,8,8,8c12.932,2.218,23.062,12.348,25.28,25.28
			c0,4.418,3.582,8,8,8s8-3.582,8-8c2.218-12.932,12.348-23.062,25.28-25.28c4.418,0,8-3.582,8-8S78.978,88.64,74.56,88.64z
			 M41.28,108.08c-3.104-4.463-6.977-8.336-11.44-11.44c4.463-3.104,8.336-6.977,11.44-11.44c3.104,4.463,6.977,8.336,11.44,11.44
			C48.257,99.744,44.384,103.617,41.28,108.08z"/>
	</g>
</g>
<g>
</g>
<g>
</g>
<g>
</g>
<g>
</g>
<g>
</g>
<g>
</g>
<g>
</g>
<g>
</g>
<g>
</g>
<g>
</g>
<g>
</g>
<g>
</g>
<g>
</g>
<g>
</g>
<g>
</g>
</svg>
