<svg enable-background="new 0 0 481.28 481.28" viewBox="0 0 481.28 481.28" xmlns="http://www.w3.org/2000/svg"><path d="m297.28 136.64c0 30.928-25.072 56-56 56v16c39.765 0 72-32.236 72-72z"/><path d="m169.28 136.64h16c0-30.928 25.072-56 56-56v-16c-39.764 0-72 32.235-72 72z"/><path d="m255.76 134.96-26.32-4.4c-2.739-.221-4.781-2.621-4.56-5.36s2.621-4.781 5.36-4.56h22.08c2.739 0 4.96 2.221 4.96 4.96v3.04h16v-3.04c-.044-11.558-9.402-20.916-20.96-20.96h-3.04v-8h-16v8h-3.04c-11.575-.16-21.088 9.093-21.248 20.668-.145 10.469 7.457 19.439 17.808 21.012l26.32 4.4c2.739.221 4.781 2.621 4.56 5.36s-2.621 4.781-5.36 4.56h-22.08c-2.739 0-4.96-2.221-4.96-4.96v-3.04h-16v3.04c.044 11.558 9.402 20.916 20.96 20.96h3.04v8h16v-8h3.04c11.575.16 21.088-9.093 21.248-20.668.145-10.468-7.457-19.439-17.808-21.012z"/><path d="m241.28 32.64c-57.438 0-104 46.562-104 104s46.562 104 104 104 104-46.562 104-104-46.562-104-104-104zm0 192c-48.601 0-88-39.399-88-88s39.399-88 88-88 88 39.399 88 88-39.399 88-88 88z"/><path d="m161.28 336.64c0 30.928-25.072 56-56 56v16c39.765 0 72-32.236 72-72z"/><path d="m33.28 336.64h16c0-30.928 25.072-56 56-56v-16c-39.765 0-72 32.235-72 72z"/><path d="m105.28 232.64c-57.438 0-104 46.562-104 104s46.562 104 104 104 104-46.562 104-104-46.562-104-104-104zm0 192c-48.601 0-88-39.399-88-88s39.399-88 88-88 88 39.399 88 88-39.399 88-88 88z"/><path d="m433.28 336.64c0 30.928-25.072 56-56 56v16c39.765 0 72-32.236 72-72z"/><path d="m305.28 336.64h16c0-30.928 25.072-56 56-56v-16c-39.764 0-72 32.235-72 72z"/><path d="m377.28 232.64c-57.438 0-104 46.562-104 104s46.562 104 104 104 104-46.562 104-104-46.562-104-104-104zm0 192c-48.601 0-88-39.399-88-88s39.399-88 88-88 88 39.399 88 88-39.399 88-88 88z"/><path d="m109.28 368.64c-6.295 0-12.223-2.964-16-8h12v-16h-16v-8h16v-16h-11.92c6.573-8.822 19.054-10.645 27.875-4.071.842.627 1.632 1.32 2.365 2.071l11.36-11.2c-13.841-14.15-36.533-14.399-50.682-.558-3.938 3.852-6.935 8.56-8.758 13.758h-10.24v16h8v8h-8v16h10.16c5.113 14.319 18.636 23.91 33.84 24 9.672.038 18.942-3.861 25.68-10.8l-11.44-11.2c-3.735 3.85-8.876 6.016-14.24 6z"/><path d="m369.28 352.64v-8h16v-16h-16v-12c.006-6.627 5.383-11.995 12.011-11.99 3.176.003 6.222 1.265 8.469 3.509l11.52-11.52c-5.274-5.218-12.422-8.1-19.84-8-15.464-.088-28.071 12.376-28.16 27.84v.16 12h-8v16h8v8c0 4.418-3.582 8-8 8s-8 3.582-8 8 3.582 8 8 8h48v-16h-25.36c.904-2.569 1.364-5.274 1.36-7.999z"/><path d="m204.48 444.8-3.2 15.6c5.36 1.12 10.88 2.08 16.4 2.72l2-16c-5.2-.48-10.4-1.36-15.2-2.32z"/><path d="m175.12 436-5.84 14.96c5.2 2 10.48 3.84 16 5.36l4.56-15.28c-5.12-1.44-10-3.12-14.72-5.04z"/><path d="m250.16 448.64c-4.32 0-8.72 0-13.12 0h-2.24l-.56 16h2.32 14.32z"/><path d="m280 444.48c-4.4 1.2-9.52 2.08-14.72 2.72l2 16c5.52-.64 11.04-1.6 16-2.72z"/><path d="m309.84 435.76c-4.72 1.92-9.6 3.6-14.48 5.04l4.64 15.36c5.28-1.6 10.56-3.44 16-5.52z"/><path d="m428.48 176-14.88 6.08c1.92 4.72 3.68 9.52 5.2 14.4l15.28-4.48c-1.68-5.2-3.52-10.48-5.6-16z"/><path d="m438.32 208.64-16 3.44c1.12 4.96 2 10 2.72 15.04l16.24-2.48c-.72-5.52-1.76-11.04-2.96-16z"/><path d="m420.48 159.12c-2.24-4.32-4.56-8.4-7.04-12.48l-13.6 8.4c2.24 3.68 4.4 7.52 6.48 11.44l.96 1.92 14.32-7.2z"/><path d="m393.76 119.84-12.08 10.48c3.6 3.84 6.64 7.84 9.6 12l12.88-9.52c-3.2-4.4-6.72-8.8-10.4-12.96z"/><path d="m369.92 96.64-10.16 12.4c3.92 3.2 8 6.64 11.44 10.16l11.12-11.44c-4-3.92-8-8-12.4-11.12z"/><path d="m92.56 120.64c-3.76 4.08-7.44 8-10.88 12.64l12.56 9.92c3.04-3.68 6.56-7.6 10-11.28z"/><path d="m117.28 98.64c-4.4 3.36-8.72 6.96-12.8 10.64l10.72 11.92c3.754-3.448 7.679-6.706 11.76-9.76z"/><path d="m71.92 147.36-1.28 1.68c-2.64 4.08-5.04 8-7.36 12.24l14 8c2.08-3.84 4.32-7.6 6.8-11.28l1.2-1.84z"/><path d="m55.84 176.16c-2.24 5.04-4.32 10.32-6.16 15.52l15.04 5.28c1.68-4.8 3.6-9.6 5.68-14.24z"/><path d="m45.04 207.6c-1.68 5.36-2.8 10.8-3.76 16.32l16 2.72c.88-5.04 1.92-10.08 3.2-15.04z"/><path d="m425.28 40.64v-24h-16v24h-24v16h24v24h16v-24h24v-16z"/><path d="m74.56 88.64c-12.932-2.218-23.062-12.348-25.28-25.28 0-4.418-3.582-8-8-8s-8 3.582-8 8c-2.218 12.932-12.348 23.062-25.28 25.28-4.418 0-8 3.582-8 8s3.582 8 8 8c12.932 2.218 23.062 12.348 25.28 25.28 0 4.418 3.582 8 8 8s8-3.582 8-8c2.218-12.932 12.348-23.062 25.28-25.28 4.418 0 8-3.582 8-8s-3.582-8-8-8zm-33.28 19.44c-3.104-4.463-6.977-8.336-11.44-11.44 4.463-3.104 8.336-6.977 11.44-11.44 3.104 4.463 6.977 8.336 11.44 11.44-4.463 3.104-8.336 6.977-11.44 11.44z"/></svg>