<?xml version="1.0" encoding="iso-8859-1"?>
<!-- Generator: Adobe Illustrator 19.0.0, SVG Export Plug-In . SVG Version: 6.00 Build 0)  -->
<svg version="1.1" id="Capa_1" xmlns="http://www.w3.org/2000/svg" xmlns:xlink="http://www.w3.org/1999/xlink" x="0px" y="0px"
	 viewBox="0 0 480 480" style="enable-background:new 0 0 480 480;" xml:space="preserve">
<g>
	<g>
		<path d="M176,128c0,30.928-25.072,56-56,56v16c39.765,0,72-32.236,72-72H176z"/>
	</g>
</g>
<g>
	<g>
		<path d="M48,128h16c0-30.928,25.072-56,56-56V56C80.235,56,48,88.235,48,128z"/>
	</g>
</g>
<g>
	<g>
		<path d="M425.28,56c-12.932-2.218-23.062-12.348-25.28-25.28c0-4.418-3.582-8-8-8s-8,3.582-8,8
			c-2.218,12.932-12.348,23.062-25.28,25.28c-4.418,0-8,3.582-8,8s3.582,8,8,8c12.932,2.218,23.062,12.348,25.28,25.28
			c0,4.418,3.582,8,8,8s8-3.582,8-8c2.218-12.932,12.348-23.062,25.28-25.28c4.418,0,8-3.582,8-8S429.698,56,425.28,56z M392,75.44
			c-3.104-4.463-6.977-8.336-11.44-11.44c4.463-3.104,8.336-6.977,11.44-11.44c3.104,4.463,6.977,8.336,11.44,11.44
			C398.977,67.104,395.104,70.977,392,75.44z"/>
	</g>
</g>
<g>
	<g>
		<polygon points="248,24 248,0 232,0 232,24 208,24 208,40 232,40 232,64 248,64 248,40 272,40 272,24 		"/>
	</g>
</g>
<g>
	<g>
		<path d="M134.48,126.32l-26.32-4.4c-2.739-0.221-4.781-2.621-4.56-5.36c0.221-2.739,2.621-4.781,5.36-4.56h22.08
			c2.739,0,4.96,2.221,4.96,4.96V120h16v-3.04c-0.044-11.558-9.402-20.916-20.96-20.96H128v-8h-16v8h-3.04
			c-11.575-0.16-21.088,9.093-21.248,20.668c-0.145,10.469,7.457,19.439,17.808,21.012l26.32,4.4c2.739,0.221,4.781,2.621,4.56,5.36
			c-0.221,2.739-2.621,4.781-5.36,4.56h-22.08c-2.739,0-4.96-2.221-4.96-4.96V144H88v3.04c0.044,11.558,9.402,20.916,20.96,20.96
			H112v8h16v-8h3.04c11.575,0.16,21.088-9.093,21.248-20.668C152.433,136.864,144.831,127.893,134.48,126.32z"/>
	</g>
</g>
<g>
	<g>
		<path d="M224,320h-16v-32h8c4.418,0,8-3.582,8-8v-48c0-4.418-3.582-8-8-8h-56c53.019-22.091,78.091-82.981,56-136
			S133.019,9.909,80,32S1.909,114.981,24,168c10.551,25.322,30.678,45.449,56,56H24c-4.418,0-8,3.582-8,8v40H8c-4.418,0-8,3.582-8,8
			v48c0,4.418,3.582,8,8,8h16v32h-8c-4.418,0-8,3.582-8,8v40c-4.418,0-8,3.582-8,8v48c0,4.418,3.582,8,8,8h192c4.418,0,8-3.582,8-8
			v-40c4.418,0,8-3.582,8-8v-40h8c4.418,0,8-3.582,8-8v-48C232,323.582,228.418,320,224,320z M32,128c0-48.601,39.399-88,88-88
			s88,39.399,88,88s-39.399,88-88,88S32,176.601,32,128z M32,240h176v32h-16v-16h-16v16h-16v-16h-16v16h-16v-16h-16v16H96v-16H80v16
			H64v-16H48v16H32V240z M16,320v-32h176v32h-16v-16h-16v16h-16v-16h-16v16h-16v-16H96v16H80v-16H64v16H48v-16H32v16H16z M192,464
			h-16v-16h-16v16h-16v-16h-16v16h-16v-16H96v16H80v-16H64v16H48v-16H32v16H16v-32h176V464z M200,416h-16v-16h-16v16h-16v-16h-16v16
			h-16v-16h-16v16H88v-16H72v16H56v-16H40v16H24v-32h176V416z M216,368h-16v-16h-16v16h-16v-16h-16v16h-16v-16h-16v16h-16v-16H88v16
			H72v-16H56v16H40v-32h176V368z"/>
	</g>
</g>
<g>
	<g>
		<path d="M472,192c4.418,0,8-3.582,8-8v-48c0-4.418-3.582-8-8-8H280c-4.418,0-8,3.582-8,8v40h-24c-4.418,0-8,3.582-8,8v48
			c0,4.418,3.582,8,8,8h8v88c0,4.418,3.582,8,8,8h8v32h-16c-4.418,0-8,3.582-8,8v96c0,4.418,3.582,8,8,8h192c4.418,0,8-3.582,8-8
			v-88h16c4.418,0,8-3.582,8-8v-48c0-4.418-3.582-8-8-8h-8v-88c0-4.418-3.582-8-8-8h-8v-32H472z M256,224v-32h176v32h-16v-16h-16v16
			h-16v-16h-16v16h-16v-16h-16v16h-16v-16h-16v16h-16v-16h-16v16H256z M416,304v16h-16v-16h-16v16h-16v-16h-16v16h-16v-16h-16v16
			h-16v-16h-16v16h-16v-32h176v32h-16v-16H416z M432,272v-16h-16v16h-16v-16h-16v16h-16v-16h-16v16h-16v-16h-16v16h-16v-16h-16v16
			h-16v-32h168h8v32H432z M440,464h-16v-16h-16v16h-16v-16h-16v16h-16v-16h-16v16h-16v-16h-16v16h-16v-16h-16v16h-16v-32h176V464z
			 M440,416h-16v-16h-16v16h-16v-16h-16v16h-16v-16h-16v16h-16v-16h-16v16h-16v-16h-16v16h-16v-32h176V416z M464,336v32h-16v-16h-16
			v16h-16v-16h-16v16h-16v-16h-16v16h-16v-16h-16v16h-16v-16h-16v16h-16v-32H464z M432,160v16h-16v-16h-16v16h-16v-16h-16v16h-16
			v-16h-16v16h-16v-16h-16v16h-16v-32h176v32h-16v-16H432z"/>
	</g>
</g>
<g>
</g>
<g>
</g>
<g>
</g>
<g>
</g>
<g>
</g>
<g>
</g>
<g>
</g>
<g>
</g>
<g>
</g>
<g>
</g>
<g>
</g>
<g>
</g>
<g>
</g>
<g>
</g>
<g>
</g>
</svg>
