<svg enable-background="new 0 0 480 480" viewBox="0 0 480 480" xmlns="http://www.w3.org/2000/svg"><path d="m400 160h-256c-4.418 0-8 3.582-8 8v56h-56c-4.418 0-8 3.582-8 8v128c0 4.418 3.582 8 8 8h192c4.418 0 8-3.582 8-8v-56h120c4.418 0 8-3.582 8-8v-128c0-4.418-3.582-8-8-8zm-264 192h-48v-48h48zm0-64h-48v-48h48zm64 64h-48v-48h48zm0-64h-48v-48h48zm0-64h-48v-48h48zm64 128h-48v-48h48zm0-64h-48v-48h48zm0-64h-48v-48h48zm64 64h-48v-48h48zm0-64h-48v-48h48zm64 64h-48v-48h48zm0-64h-48v-48h48z"/><path d="m432 24h-64v-16c0-4.418-3.582-8-8-8s-8 3.582-8 8v16h-64v-16c0-4.418-3.582-8-8-8s-8 3.582-8 8v16h-64v-16c0-4.418-3.582-8-8-8s-8 3.582-8 8v16h-64v-16c0-4.418-3.582-8-8-8s-8 3.582-8 8v16h-64c-4.418 0-8 3.582-8 8v440c0 4.418 3.582 8 8 8h384c4.418 0 8-3.582 8-8v-440c0-4.418-3.582-8-8-8zm-8 440h-368v-16h368zm0-32h-368v-16h312c2.126.012 4.17-.823 5.68-2.32l50.32-50.4zm-48-43.28v-36.72h36.72zm48-52.72h-56c-4.418 0-8 3.582-8 8v56h-304v-272h368zm0-224h-368v-72h56v16c0 4.418 3.582 8 8 8s8-3.582 8-8v-16h64v16c0 4.418 3.582 8 8 8s8-3.582 8-8v-16h64v16c0 4.418 3.582 8 8 8s8-3.582 8-8v-16h64v16c0 4.418 3.582 8 8 8s8-3.582 8-8v-16h56z"/><path d="m296 320h24v24h-24z"/><path d="m96 184h24v24h-24z"/></svg>