<svg enable-background="new 0 0 480 480" viewBox="0 0 480 480" xmlns="http://www.w3.org/2000/svg"><path d="m160 112h104v16h-104z"/><path d="m280 112h40v16h-40z"/><path d="m440 0h-16c-4.418 0-8 3.582-8 8v56h-408c-4.418 0-8 3.582-8 8v336c0 4.418 3.582 8 8 8h432c22.091 0 40-17.909 40-40v-336c0-22.091-17.909-40-40-40zm0 400h-424v-320h400v264c0 4.418 3.582 8 8 8h16c13.255 0 24 10.745 24 24s-10.745 24-24 24zm24-56c-6.924-5.193-15.345-8-24-8h-8v-320h8c13.255 0 24 10.745 24 24z"/><path d="m392 256h-40v-24c0-4.418-3.582-8-8-8h-96v-16h40c4.418 0 8-3.582 8-8v-48c0-4.418-3.582-8-8-8h-96c-4.418 0-8 3.582-8 8v48c0 4.418 3.582 8 8 8h40v16h-96c-4.418 0-8 3.582-8 8v24h-40c-4.418 0-8 3.582-8 8v48c0 4.418 3.582 8 8 8h96c4.418 0 8-3.582 8-8v-48c0-4.418-3.582-8-8-8h-40v-16h192v16h-40c-4.418 0-8 3.582-8 8v48c0 4.418 3.582 8 8 8h96c4.418 0 8-3.582 8-8v-48c0-4.418-3.582-8-8-8zm-216 16v32h-80v-32zm24-80v-32h80v32zm184 112h-80v-32h80z"/><path d="m80 336h32v16h-32z"/><path d="m128 336h64v16h-64z"/><path d="m392 432h-184c-1.568.012-3.098.485-4.4 1.36l-24 16c-3.667 2.464-4.642 7.435-2.178 11.102.578.86 1.318 1.6 2.178 2.178l24 16c1.302.875 2.832 1.348 4.4 1.36h184c4.418 0 8-3.582 8-8v-32c0-4.418-3.582-8-8-8zm-40 32h-141.6l-12-8 12-8h141.6zm32 0h-16v-16h16z"/><path d="m288 336h64v16h-64z"/><path d="m368 336h32v16h-32z"/></svg>