<svg enable-background="new 0 0 481.855 481.855" viewBox="0 0 481.855 481.855" xmlns="http://www.w3.org/2000/svg"><path d="m388.768 321.855 3.12-8.48c11.199-30.464 3.603-64.661-19.44-87.52-12.514-12.388-19.544-29.272-19.52-46.88v-13.6c15.243-8.944 20.35-28.551 11.406-43.794-2.766-4.714-6.693-8.641-11.406-11.406-1.016-61.855-51.984-111.176-113.84-110.16-61.856 1.017-111.176 51.985-110.16 113.84v65.12c.024 17.608-7.006 34.492-19.52 46.88-23.051 23.076-30.355 57.56-18.64 88l2.8 7.44c-13.316 15.84-20.624 35.866-20.64 56.56v104h16v-104c0-39.765 32.236-72 72-72v176h16v-153.44l57.04 101.36c2.178 3.844 7.06 5.194 10.904 3.016 1.26-.714 2.302-1.756 3.016-3.016l57.04-101.36v153.44h16v-176c39.765 0 72 32.235 72 72v104h16v-104c-.012-20.441-7.14-40.241-20.16-56zm-35.84-184c0 8.837-7.163 16-16 16v-32c8.836 0 16 7.164 16 16zm-116-124c53.019-2.209 97.791 38.981 100 92h-8c-41.6 0-64-65.84-64-66.56-.177-4.418-3.902-7.857-8.32-7.68s-7.857 3.902-7.68 8.32c-14.96 59.76-99.2 106.4-100.08 106.88-2.479 1.469-3.977 4.159-3.92 7.04v-40c-2.209-53.019 38.98-97.79 92-100zm-32 113.52c21.812-17.414 39.719-39.219 52.56-64 10.56 21.2 31.44 52.96 63.44 57.6v48.88c0 44.183-35.817 80-80 80s-80-35.817-80-80v-11.36c4-2.4 10.64-6.4 18.64-11.92 4.862 7.379 14.785 9.419 22.164 4.557 4.468-2.944 7.168-7.926 7.196-13.277-.025-3.861-1.446-7.583-4-10.48zm-44 162.48c-19.95.02-39.301 6.818-54.88 19.28l-.4-.96c-9.317-24.548-3.332-52.28 15.28-70.8 15.474-15.483 24.116-36.51 24-58.4v-9.12c.035 34.262 18.328 65.909 48 83.04v36.96zm80 120-58.32-104h18.32c4.418 0 8-3.582 8-8v-37.6c20.68 7.466 43.32 7.466 64 0v37.6c0 4.418 3.582 8 8 8h18.32zm136-102-.64 1.68c-15.628-12.755-35.188-19.708-55.36-19.68h-32v-36.96c29.672-17.131 47.965-48.778 48-83.04v9.12c-.045 22.119 8.839 43.321 24.64 58.8 18.294 18.396 24.283 45.72 15.36 70.08z"/><circle cx="288.928" cy="137.855" r="16"/><path d="m267.248 188.175c-8.719 8.779-20.587 13.705-32.96 13.68h-9.36v16h9.36c16.627.059 32.587-6.538 44.32-18.32z"/><path d="m237.888 169.855 10.16-20.4-14.24-7.2-16 32c-1.988 3.946-.401 8.756 3.544 10.744 1.109.559 2.334.852 3.576.856h24v-16z"/></svg>