<?xml version="1.0" encoding="iso-8859-1"?>
<!-- Generator: Adobe Illustrator 19.0.0, SVG Export Plug-In . SVG Version: 6.00 Build 0)  -->
<svg version="1.1" id="Capa_1" xmlns="http://www.w3.org/2000/svg" xmlns:xlink="http://www.w3.org/1999/xlink" x="0px" y="0px"
	 viewBox="0 0 481.855 481.855" style="enable-background:new 0 0 481.855 481.855;" xml:space="preserve">
<g>
	<g>
		<path d="M388.768,321.855l3.12-8.48c11.199-30.464,3.603-64.661-19.44-87.52c-12.514-12.388-19.544-29.272-19.52-46.88v-13.6
			c15.243-8.944,20.35-28.551,11.406-43.794c-2.766-4.714-6.693-8.641-11.406-11.406C351.912,48.32,300.944-1.001,239.088,0.015
			C177.232,1.032,127.912,52,128.928,113.855v65.12c0.024,17.608-7.006,34.492-19.52,46.88c-23.051,23.076-30.355,57.56-18.64,88
			l2.8,7.44c-13.316,15.84-20.624,35.866-20.64,56.56v104h16v-104c0-39.765,32.236-72,72-72v176h16v-153.44l57.04,101.36
			c2.178,3.844,7.06,5.194,10.904,3.016c1.26-0.714,2.302-1.756,3.016-3.016l57.04-101.36v153.44h16v-176c39.765,0,72,32.235,72,72
			v104h16v-104C408.916,357.414,401.788,337.614,388.768,321.855z M352.928,137.855c0,8.837-7.163,16-16,16v-32
			C345.764,121.855,352.928,129.019,352.928,137.855z M236.928,13.855c53.019-2.209,97.791,38.981,100,92h-8
			c-41.6,0-64-65.84-64-66.56c-0.177-4.418-3.902-7.857-8.32-7.68c-4.418,0.177-7.857,3.902-7.68,8.32
			c-14.96,59.76-99.2,106.4-100.08,106.88c-2.479,1.469-3.977,4.159-3.92,7.04v-40C142.719,60.836,183.908,16.065,236.928,13.855z
			 M204.928,127.375c21.812-17.414,39.719-39.219,52.56-64c10.56,21.2,31.44,52.96,63.44,57.6v48.88c0,44.183-35.817,80-80,80
			s-80-35.817-80-80v-11.36c4-2.4,10.64-6.4,18.64-11.92c4.862,7.379,14.785,9.419,22.164,4.557
			c4.468-2.944,7.168-7.926,7.196-13.277C208.903,133.994,207.482,130.272,204.928,127.375z M160.928,289.855
			c-19.95,0.02-39.301,6.818-54.88,19.28l-0.4-0.96c-9.317-24.548-3.332-52.28,15.28-70.8c15.474-15.483,24.116-36.51,24-58.4v-9.12
			c0.035,34.262,18.328,65.909,48,83.04v36.96H160.928z M240.928,409.855l-58.32-104h18.32c4.418,0,8-3.582,8-8v-37.6
			c20.68,7.466,43.32,7.466,64,0v37.6c0,4.418,3.582,8,8,8h18.32L240.928,409.855z M376.928,307.855l-0.64,1.68
			c-15.628-12.755-35.188-19.708-55.36-19.68h-32v-36.96c29.672-17.131,47.965-48.778,48-83.04v9.12
			c-0.045,22.119,8.839,43.321,24.64,58.8C379.862,256.171,385.851,283.495,376.928,307.855z"/>
	</g>
</g>
<g>
	<g>
		<circle cx="288.928" cy="137.855" r="16"/>
	</g>
</g>
<g>
	<g>
		<path d="M267.248,188.175c-8.719,8.779-20.587,13.705-32.96,13.68h-9.36v16h9.36c16.627,0.059,32.587-6.538,44.32-18.32
			L267.248,188.175z"/>
	</g>
</g>
<g>
	<g>
		<path d="M237.888,169.855l10.16-20.4l-14.24-7.2l-16,32c-1.988,3.946-0.401,8.756,3.544,10.744
			c1.109,0.559,2.334,0.852,3.576,0.856h24v-16H237.888z"/>
	</g>
</g>
<g>
</g>
<g>
</g>
<g>
</g>
<g>
</g>
<g>
</g>
<g>
</g>
<g>
</g>
<g>
</g>
<g>
</g>
<g>
</g>
<g>
</g>
<g>
</g>
<g>
</g>
<g>
</g>
<g>
</g>
</svg>
