<svg enable-background="new 0 0 480.046 480.046" viewBox="0 0 480.046 480.046" xmlns="http://www.w3.org/2000/svg"><path d="m336.023 288h-48v-36.96c29.672-17.131 47.965-48.778 48-83.04 17.673 0 32-14.327 32-32s-14.327-32-32-32v-16c0-48.601-39.399-88-88-88h-96c-4.418 0-8 3.582-8 8 .026 14.168 4.753 27.927 13.44 39.12-8.815 14.779-13.46 31.671-13.44 48.88v8c-17.673 0-32 14.327-32 32s14.327 32 32 32c.035 34.262 18.328 65.909 48 83.04v36.96h-48c-39.765 0-72 32.235-72 72v120h16v-120c0-30.928 25.072-56 56-56h67.04l12.96 25.36-16 117.6c-.34 2.467.488 4.951 2.24 6.72l24 24c3.111 3.137 8.177 3.158 11.314.046.016-.015.031-.031.046-.046l24-24c1.752-1.769 2.58-4.253 2.24-6.72l-16-117.6 13.12-25.36h67.04c30.928 0 56 25.072 56 56v120h16v-120c0-39.765-32.235-72-72-72zm0-168c8.837 0 16 7.163 16 16s-7.163 16-16 16zm-192 32c-8.837 0-16-7.163-16-16s7.163-16 16-16zm104-136c39.765 0 72 32.235 72 72v8.8c-9.357-8.699-15.073-20.618-16-33.36-.295-4.198-3.791-7.45-8-7.44h-88c-23.434.015-43.454-16.893-47.36-40zm-88 80c.07-12.948 3.282-25.687 9.36-37.12 2.095 1.614 4.316 3.058 6.64 4.32-.725 12.887-6.468 24.977-16 33.68zm0 72v-51.44c16.974-10.098 28.472-27.33 31.28-46.88 5.439 1.543 11.066 2.324 16.72 2.32h81.2c3.396 18.606 14.611 34.86 30.8 44.64v51.36c0 44.183-35.817 80-80 80s-80-35.817-80-80zm80 292.72-15.52-16 14.56-108.72h1.92l14.56 109.12zm-11.04-156.72h22.08l-8 16h-6.08zm43.04-16h-64v-29.6c20.68 7.466 43.32 7.466 64 0z"/><circle cx="192.023" cy="136" r="16"/><circle cx="288.023" cy="136" r="16"/><path d="m128.023 368h16v112h-16z"/><path d="m336.023 368h16v112h-16z"/><path d="m248.023 122.16-16-4.32-16 56c-.678 2.393-.205 4.965 1.28 6.96 1.511 2.014 3.882 3.2 6.4 3.2h24.32v-16h-13.36z"/><path d="m266.343 186.32c-8.719 8.779-20.587 13.705-32.96 13.68h-9.36v16h9.36c16.627.059 32.587-6.538 44.32-18.32z"/></svg>