<?xml version="1.0" encoding="iso-8859-1"?>
<!-- Generator: Adobe Illustrator 19.0.0, SVG Export Plug-In . SVG Version: 6.00 Build 0)  -->
<svg version="1.1" id="Capa_1" xmlns="http://www.w3.org/2000/svg" xmlns:xlink="http://www.w3.org/1999/xlink" x="0px" y="0px"
	 viewBox="0 0 480.046 480.046" style="enable-background:new 0 0 480.046 480.046;" xml:space="preserve">
<g>
	<g>
		<path d="M336.023,288h-48v-36.96c29.672-17.131,47.965-48.778,48-83.04c17.673,0,32-14.327,32-32s-14.327-32-32-32V88
			c0-48.601-39.399-88-88-88h-96c-4.418,0-8,3.582-8,8c0.026,14.168,4.753,27.927,13.44,39.12
			c-8.815,14.779-13.46,31.671-13.44,48.88v8c-17.673,0-32,14.327-32,32s14.327,32,32,32c0.035,34.262,18.328,65.909,48,83.04V288
			h-48c-39.765,0-72,32.235-72,72v120h16V360c0-30.928,25.072-56,56-56h67.04l12.96,25.36l-16,117.6
			c-0.34,2.467,0.488,4.951,2.24,6.72l24,24c3.111,3.137,8.177,3.158,11.314,0.046c0.016-0.015,0.031-0.031,0.046-0.046l24-24
			c1.752-1.769,2.58-4.253,2.24-6.72l-16-117.6l13.12-25.36h67.04c30.928,0,56,25.072,56,56v120h16V360
			C408.023,320.235,375.788,288,336.023,288z M336.023,120c8.837,0,16,7.163,16,16s-7.163,16-16,16V120z M144.023,152
			c-8.837,0-16-7.163-16-16s7.163-16,16-16V152z M248.023,16c39.765,0,72,32.235,72,72v8.8c-9.357-8.699-15.073-20.618-16-33.36
			c-0.295-4.198-3.791-7.45-8-7.44h-88c-23.434,0.015-43.454-16.893-47.36-40H248.023z M160.023,96
			c0.07-12.948,3.282-25.687,9.36-37.12c2.095,1.614,4.316,3.058,6.64,4.32c-0.725,12.887-6.468,24.977-16,33.68V96z M160.023,168
			v-51.44c16.974-10.098,28.472-27.33,31.28-46.88c5.439,1.543,11.066,2.324,16.72,2.32h81.2c3.396,18.606,14.611,34.86,30.8,44.64
			V168c0,44.183-35.817,80-80,80S160.023,212.183,160.023,168z M240.023,460.72l-15.52-16L239.063,336h1.92l14.56,109.12
			L240.023,460.72z M228.983,304h22.08l-8,16h-6.08L228.983,304z M272.023,288h-64v-29.6c20.68,7.466,43.32,7.466,64,0V288z"/>
	</g>
</g>
<g>
	<g>
		<circle cx="192.023" cy="136" r="16"/>
	</g>
</g>
<g>
	<g>
		<circle cx="288.023" cy="136" r="16"/>
	</g>
</g>
<g>
	<g>
		<rect x="128.023" y="368" width="16" height="112"/>
	</g>
</g>
<g>
	<g>
		<rect x="336.023" y="368" width="16" height="112"/>
	</g>
</g>
<g>
	<g>
		<path d="M248.023,122.16l-16-4.32l-16,56c-0.678,2.393-0.205,4.965,1.28,6.96c1.511,2.014,3.882,3.2,6.4,3.2h24.32v-16h-13.36
			L248.023,122.16z"/>
	</g>
</g>
<g>
	<g>
		<path d="M266.343,186.32c-8.719,8.779-20.587,13.705-32.96,13.68h-9.36v16h9.36c16.627,0.059,32.587-6.538,44.32-18.32
			L266.343,186.32z"/>
	</g>
</g>
<g>
</g>
<g>
</g>
<g>
</g>
<g>
</g>
<g>
</g>
<g>
</g>
<g>
</g>
<g>
</g>
<g>
</g>
<g>
</g>
<g>
</g>
<g>
</g>
<g>
</g>
<g>
</g>
<g>
</g>
</svg>
