<svg enable-background="new 0 0 480 480" viewBox="0 0 480 480" xmlns="http://www.w3.org/2000/svg"><path d="m152 464h16v16h-16z"/><path d="m184 464h16v16h-16z"/><path d="m216 464h16v16h-16z"/><path d="m248 464h16v16h-16z"/><path d="m280 464h16v16h-16z"/><path d="m312 464h16v16h-16z"/><path d="m464 400v-136c0-4.418-3.582-8-8-8h-32c-4.418 0-8 3.582-8 8v136h-24v-224c0-4.418-3.582-8-8-8h-32c-4.418 0-8 3.582-8 8v224h-24v-304c0-4.418-3.582-8-8-8h-32c-4.418 0-8 3.582-8 8v304h-24v-176c0-4.418-3.582-8-8-8h-32c-4.418 0-8 3.582-8 8v176h-24v-248c0-4.418-3.582-8-8-8h-32c-4.418 0-8 3.582-8 8v248h-24v-88c0-4.418-3.582-8-8-8h-32c-4.418 0-8 3.582-8 8v88h-24v-400h-16v16h-16v16h16v80h-16v16h16v80h-16v16h16v80h-16v16h16v88c0 4.418 3.582 8 8 8h456v-16zm-376 0h-16v-80h16zm72 0h-16v-240h16zm72 0h-16v-168h16zm72 0h-16v-296h16zm72 0h-16v-216h16zm72 0h-16v-128h16z"/><path d="m56 432h48v16h-48z"/><path d="m128 432h48v16h-48z"/><path d="m200 432h48v16h-48z"/><path d="m272 432h48v16h-48z"/><path d="m344 432h48v16h-48z"/><path d="m416 432h48v16h-48z"/></svg>