<?xml version="1.0" encoding="iso-8859-1"?>
<!-- Generator: Adobe Illustrator 19.0.0, SVG Export Plug-In . SVG Version: 6.00 Build 0)  -->
<svg version="1.1" id="Capa_1" xmlns="http://www.w3.org/2000/svg" xmlns:xlink="http://www.w3.org/1999/xlink" x="0px" y="0px"
	 viewBox="0 0 480 480" style="enable-background:new 0 0 480 480;" xml:space="preserve">
<g>
	<g>
		<rect x="152" y="464" width="16" height="16"/>
	</g>
</g>
<g>
	<g>
		<rect x="184" y="464" width="16" height="16"/>
	</g>
</g>
<g>
	<g>
		<rect x="216" y="464" width="16" height="16"/>
	</g>
</g>
<g>
	<g>
		<rect x="248" y="464" width="16" height="16"/>
	</g>
</g>
<g>
	<g>
		<rect x="280" y="464" width="16" height="16"/>
	</g>
</g>
<g>
	<g>
		<rect x="312" y="464" width="16" height="16"/>
	</g>
</g>
<g>
	<g>
		<path d="M464,400V264c0-4.418-3.582-8-8-8h-32c-4.418,0-8,3.582-8,8v136h-24V176c0-4.418-3.582-8-8-8h-32c-4.418,0-8,3.582-8,8
			v224h-24V96c0-4.418-3.582-8-8-8h-32c-4.418,0-8,3.582-8,8v304h-24V224c0-4.418-3.582-8-8-8h-32c-4.418,0-8,3.582-8,8v176h-24V152
			c0-4.418-3.582-8-8-8h-32c-4.418,0-8,3.582-8,8v248h-24v-88c0-4.418-3.582-8-8-8H64c-4.418,0-8,3.582-8,8v88H32V0H16v16H0v16h16
			v80H0v16h16v80H0v16h16v80H0v16h16v88c0,4.418,3.582,8,8,8h456v-16H464z M88,400H72v-80h16V400z M160,400h-16V160h16V400z
			 M232,400h-16V232h16V400z M304,400h-16V104h16V400z M376,400h-16V184h16V400z M448,400h-16V272h16V400z"/>
	</g>
</g>
<g>
	<g>
		<rect x="56" y="432" width="48" height="16"/>
	</g>
</g>
<g>
	<g>
		<rect x="128" y="432" width="48" height="16"/>
	</g>
</g>
<g>
	<g>
		<rect x="200" y="432" width="48" height="16"/>
	</g>
</g>
<g>
	<g>
		<rect x="272" y="432" width="48" height="16"/>
	</g>
</g>
<g>
	<g>
		<rect x="344" y="432" width="48" height="16"/>
	</g>
</g>
<g>
	<g>
		<rect x="416" y="432" width="48" height="16"/>
	</g>
</g>
<g>
</g>
<g>
</g>
<g>
</g>
<g>
</g>
<g>
</g>
<g>
</g>
<g>
</g>
<g>
</g>
<g>
</g>
<g>
</g>
<g>
</g>
<g>
</g>
<g>
</g>
<g>
</g>
<g>
</g>
</svg>
