<svg enable-background="new 0 0 481.28 481.28" viewBox="0 0 481.28 481.28" xmlns="http://www.w3.org/2000/svg"><path d="m424.64 161.28h-40v-24c0-22.091-17.909-40-40-40h-8c-4.418 0-8 3.582-8 8v56h-272c-4.418 0-8 3.582-8 8v304c0 4.418 3.582 8 8 8h368c4.418 0 8-3.582 8-8v-304c0-4.418-3.582-8-8-8zm-80-48c13.255 0 24 10.745 24 24v144c-6.924-5.193-15.345-8-24-8zm-64 104.88c21.292 21.765 21.292 56.555 0 78.32zm0 98.88c32.982-22.212 41.714-66.956 19.502-99.938-5.183-7.696-11.805-14.318-19.502-19.502v-20.32h48v104c0 4.418 3.582 8 8 8h8c13.255 0 24 10.745 24 24s-10.745 24-24 24h-64zm-216-139.76h31.2c-3.205 15.714-15.486 27.995-31.2 31.2zm0 120.8c18.627 3.802 32.004 20.189 32 39.2h-32zm136 167.2h-136v-16h136zm0-32h-136v-16h136zm0-32h-136v-16h136zm0-32h-136v-16h136zm0-72.88c-21.24-21.756-21.24-56.484 0-78.24zm0-98.8c-32.96 22.245-41.647 66.997-19.402 99.958 5.164 7.651 11.751 14.238 19.402 19.402v20.32h-88c-.033-27.813-20.473-51.387-48-55.36v-57.28c24.528-3.566 43.794-22.832 47.36-47.36h88.64zm64 139.68v128h-48v-288h48zm152 128h-136v-16h136zm0-32h-136v-16h136zm0-32h-136v-16h136zm0-32h-136v-16h136zm0-32h-40c5.235-6.902 8.047-15.338 8-24v-136h32z"/><path d="m249.92 33.28c-12.932-2.218-23.062-12.348-25.28-25.28 0-4.418-3.582-8-8-8s-8 3.582-8 8c-2.218 12.932-12.348 23.062-25.28 25.28-4.418 0-8 3.582-8 8s3.582 8 8 8c12.932 2.218 23.062 12.348 25.28 25.28 0 4.418 3.582 8 8 8s8-3.582 8-8c2.218-12.932 12.348-23.062 25.28-25.28 4.418 0 8-3.582 8-8s-3.582-8-8-8zm-33.28 19.44c-3.104-4.463-6.977-8.336-11.44-11.44 4.463-3.104 8.336-6.977 11.44-11.44 3.104 4.463 6.977 8.336 11.44 11.44-4.463 3.104-8.336 6.977-11.44 11.44z"/><path d="m104.64 97.28v-24h-16v24h-24v16h24v24h16v-24h24v-16z"/><path d="m408.64 65.28v-24h-16v24h-24v16h24v24h16v-24h24v-16z"/><path d="m112.64 249.28h32v16h-32z"/></svg>