<svg enable-background="new 0 0 480 480" viewBox="0 0 480 480" xmlns="http://www.w3.org/2000/svg"><path d="m456 215.992c4.418 0 8-3.582 8-8v-24h8c4.418 0 8-3.582 8-8v-32c-.007-3.143-1.853-5.991-4.72-7.28l-232-104c-2.086-.938-4.474-.938-6.56 0l-232 104c-2.867 1.288-4.713 4.136-4.72 7.28v32c0 4.418 3.582 8 8 8h8v24c0 4.418 3.582 8 8 8h8v152h-8c-4.418 0-8 3.582-8 8v24h-8c-4.418 0-8 3.582-8 8v32c0 4.418 3.582 8 8 8h464c4.418 0 8-3.582 8-8v-32c0-4.418-3.582-8-8-8h-8v-24c0-4.418-3.582-8-8-8h-8v-152zm-440-48v-18.8l224-100.4 224 100.4v18.8zm16 216h416v16h-416zm16-16v-152h48v152zm64 0v-152h32v152zm48 0v-152h48v152zm64 0v-152h32v152zm48 0v-152h48v152zm64 0v-152h32v152zm48 0v-152h48v152zm80 48v16h-448v-16zm-432-216v-16h416v16z"/><path d="m240 71.992c-22.091 0-40 17.909-40 40s17.909 40 40 40 40-17.909 40-40-17.909-40-40-40zm0 64c-13.255 0-24-10.745-24-24s10.745-24 24-24 24 10.745 24 24-10.745 24-24 24z"/><path d="m64 231.992h16v120h-16z"/><path d="m400 231.992h16v120h-16z"/><path d="m176 231.992h16v120h-16z"/><path d="m288 231.992h16v120h-16z"/></svg>