<svg enable-background="new 0 0 482.319 482.319" viewBox="0 0 482.319 482.319" xmlns="http://www.w3.org/2000/svg"><path d="m478.28 284.402c-8.594-15.464-28.096-21.034-43.56-12.44l-43.68 18.8-11.2-22.4c-1.673-3.326-2.55-6.996-2.56-10.72v-88.48c-.069-56.083-41.609-103.469-97.2-110.88l32-44.48c2.565-3.597 1.729-8.593-1.868-11.158-1.436-1.024-3.17-1.545-4.932-1.482h-128c-4.418.02-7.983 3.619-7.963 8.037.008 1.651.526 3.259 1.483 4.603l32 44.48c-55.718 7.264-97.43 54.69-97.52 110.88v90.16c-4.436 3.596-8.484 7.644-12.08 12.08l-35.36 44.24-9.92-14.88c-1.183-1.881-3.096-3.186-5.28-3.6-2.173-.31-4.381.235-6.16 1.52l-32 24c-2.037 1.528-3.225 3.934-3.2 6.48v144c0 4.418 3.582 8 8 8h104c2.126.012 4.17-.823 5.68-2.32l24-24c2.676-2.704 3.078-6.919.96-10.08l-4-6 185.04-42.56c10.024-2.319 19.724-5.866 28.88-10.56l112-57.68c15.464-8.594 21.034-28.096 12.44-43.56zm-285.48-267.24h96.96l-28.56 40h-40zm-71.52 152c0-53.019 42.981-96 96-96h48c53.019 0 96 42.981 96 96v88.48c.013 6.195 1.464 12.302 4.24 17.84l10.72 21.68-54.96 23.36c-.987.42-2.048.638-3.12.64h-140.88c-4.418 0-8-3.582-8-8s3.582-8 8-8h64c30.928 0 56-25.072 56-56 0-4.418-3.582-8-8-8h-10.32c1.504-3.432 2.293-7.133 2.32-10.88-.033-11.201-6.968-21.223-17.44-25.2l-14.56-5.44v-30.48h5.12c6.009 0 10.88 4.871 10.88 10.88v5.12h16v-5.12c-.044-14.827-12.053-26.836-26.88-26.88h-5.12v-16h-16v16h-5.12c-14.845-.048-26.919 11.948-26.966 26.793-.036 11.269 6.961 21.365 17.526 25.287l14.56 5.44v30.48h-5.12c-6.009 0-10.88-4.871-10.88-10.88v-5.12h-16v5.12c.027 3.747.816 7.448 2.32 10.88h-47.44c-12.082-.001-24.007 2.734-34.88 8zm144 61.12c0 6.009-4.871 10.88-10.88 10.88h-5.12v-24.48l8.96 3.36c4.227 1.643 7.019 5.705 7.04 10.24zm-32-61.12v24.48l-8.96-3.36c-4.227-1.643-7.019-5.705-7.04-10.24 0-6.009 4.871-10.88 10.88-10.88zm-123.28 296h-92.72v-132l22-16.56 88 131.52zm348.08-151.12-111.52 57.36c-8.016 4.095-16.507 7.185-25.28 9.2l-190.8 43.92-63.28-94.96 38.48-48.4c12.297-15.266 30.878-24.1 50.48-24h124.32c-3.802 18.627-20.189 32.004-39.2 32h-64c-13.255 0-24 10.745-24 24s10.745 24 24 24h140.72c3.244.005 6.455-.649 9.44-1.92l114.24-48.8c7.622-4.529 17.471-2.021 22 5.6s2.022 17.471-5.6 22z"/><path d="m81.28 409.162c-13.255 0-24 10.745-24 24s10.745 24 24 24 24-10.745 24-24-10.745-24-24-24zm0 32c-4.418 0-8-3.582-8-8s3.582-8 8-8 8 3.582 8 8-3.582 8-8 8z"/><path d="m434.56 49.162c-12.932-2.218-23.062-12.348-25.28-25.28 0-4.418-3.582-8-8-8s-8 3.582-8 8c-2.218 12.932-12.348 23.062-25.28 25.28-4.418 0-8 3.582-8 8s3.582 8 8 8c12.932 2.218 23.062 12.348 25.28 25.28 0 4.418 3.582 8 8 8s8-3.582 8-8c2.218-12.932 12.348-23.062 25.28-25.28 4.418 0 8-3.582 8-8s-3.582-8-8-8zm-33.28 19.44c-3.104-4.463-6.977-8.336-11.44-11.44 4.463-3.104 8.336-6.977 11.44-11.44 3.104 4.463 6.977 8.336 11.44 11.44-4.463 3.104-8.336 6.977-11.44 11.44z"/><path d="m74.56 209.162c-12.932-2.218-23.062-12.348-25.28-25.28 0-4.418-3.582-8-8-8s-8 3.582-8 8c-2.218 12.932-12.348 23.062-25.28 25.28-4.418 0-8 3.582-8 8s3.582 8 8 8c12.932 2.218 23.062 12.348 25.28 25.28 0 4.418 3.582 8 8 8s8-3.582 8-8c2.218-12.932 12.348-23.062 25.28-25.28 4.418 0 8-3.582 8-8s-3.582-8-8-8zm-33.28 19.44c-3.104-4.463-6.977-8.336-11.44-11.44 4.463-3.104 8.336-6.977 11.44-11.44 3.104 4.463 6.977 8.336 11.44 11.44-4.463 3.104-8.336 6.977-11.44 11.44z"/></svg>