<svg enable-background="new 0 0 480 480" viewBox="0 0 480 480" xmlns="http://www.w3.org/2000/svg"><path d="m432 152c-13.255 0-24 10.745-24 24s10.745 24 24 24 24-10.745 24-24-10.745-24-24-24zm0 32c-4.418 0-8-3.582-8-8s3.582-8 8-8 8 3.582 8 8-3.582 8-8 8z"/><path d="m472 0h-32c-2.126-.012-4.17.823-5.68 2.32l-120 120c-3.137 3.111-3.158 8.177-.046 11.314.015.016.031.031.046.046l18.4 18.32-24.72 24.72-68 15.28-68-15.12-24.72-24.88 18.4-18.32c3.137-3.111 3.158-8.177.046-11.314-.015-.016-.031-.031-.046-.046l-120-120c-1.51-1.497-3.553-2.332-5.68-2.32h-32c-4.418 0-8 3.582-8 8v272c.016 3.23 1.973 6.133 4.96 7.36.95.448 1.991.667 3.04.64 2.126.012 4.17-.823 5.68-2.32l18.32-18.4 26.32 26.4 60.32 60.24c-8.214 15.355-5.314 34.288 7.12 46.48l67.84 67.92c7.516 7.497 17.704 11.699 28.32 11.68 9.624-.033 18.902-3.59 26.08-10 5.196 4.183 11.65 6.494 18.32 6.56 6.254.043 12.33-2.077 17.2-6 6.142-5.023 9.887-12.398 10.32-20.32v-1.68c7.469-.008 14.652-2.87 20.08-8 5.183-5.264 8.061-12.373 8-19.76 7.511.221 14.779-2.674 20.08-8 5.247-5.353 8.128-12.586 8-20.08h2c7.912-.403 15.289-4.12 20.32-10.24 8.564-11.128 7.855-26.811-1.68-37.12l50.88-50.88 26.48-27.2 18.32 18.4c1.51 1.497 3.554 2.332 5.68 2.32 1.049.027 2.091-.192 3.04-.64 2.987-1.227 4.944-4.13 4.96-7.36v-272c0-4.418-3.582-8-8-8zm-456 260.72v-244.72h20.72l112 112zm27.28-4.72 92.72-92.72 20.72 20.72-92.72 92.72zm32 32 95.28-95.2 53.44 11.84-85.68 85.68c-3.137 3.111-3.158 8.177-.046 11.314.015.016.031.031.046.046 6.959 6.921 15.582 11.935 25.04 14.56-7.038.59-13.641 3.65-18.64 8.64l-16 16zm54.72 84.08c.006-6.363 2.538-12.463 7.04-16.96l19.04-19.12c2.555-2.594 6.039-4.062 9.68-4.08 2.576-.024 5.085.821 7.12 2.4 2.635 2.162 4.257 5.319 4.48 8.72.119 3.345-1.156 6.59-3.52 8.96-.34.376-.611.81-.8 1.28l-36.48 34.8c-4.099-4.333-6.437-10.037-6.56-16zm17.76 27.92 38.96-37.28c5.217-3.942 12.642-2.907 16.584 2.31 3.229 4.274 3.186 10.183-.104 14.41v-.16l-38.8 37.12zm44.24 44.48-16-16.8 36.8-35.12.96-.64c4.703-4.636 12.257-4.636 16.96 0 3.608 3.938 4.132 9.804 1.28 14.32zm46.88 12.72c-9.571 8.954-24.477 8.849-33.92-.24l-1.2-.96 35.12-33.76c1.046-.385 1.999-.985 2.8-1.76 2.373-2.46 5.71-3.747 9.12-3.52 3.402.154 6.575 1.755 8.72 4.4 3.784 5.243 3.063 12.485-1.68 16.88zm34.992.902c-.116.102-.233.201-.352.298v-.24c-4.037 2.994-9.493 3.216-13.76.56l9.44-9.44c2.347-2.332 4.293-5.035 5.76-8 4.345 4.946 3.858 12.477-1.088 16.822zm86.128-86.582c-2.163 2.665-5.37 4.269-8.8 4.4-3.377.269-6.696-.994-9.04-3.44-.408-.32-.835-.614-1.28-.88l-39.28-41.12-11.52 11.04 41.84 43.84c4.045 5.138 3.16 12.582-1.977 16.627-4.582 3.608-11.109 3.342-15.383-.627l-44.96-46.72-11.52 11.04 43.92 45.76s0 .56.56.8c2.251 2.248 3.517 5.298 3.52 8.48-.02 3.178-1.284 6.222-3.52 8.48-4.77 4.471-12.19 4.471-16.96 0-2.108-2.067-5.183-2.805-8-1.92-.143-5.829-2.195-11.449-5.84-16-5.023-6.142-12.398-9.887-20.32-10.32h-1.68c.138-7.496-2.745-14.732-8-20.08-5.401-5.173-12.602-8.042-20.08-8 .07-7.389-2.81-14.501-8-19.76-5.415-5.151-12.607-8.016-20.08-8 .038-.586.038-1.174 0-1.76-.403-7.912-4.12-15.289-10.24-20.32-2.089-1.616-4.408-2.91-6.88-3.84 14.056.522 27.7-4.808 37.68-14.72l26.64-28.32c15.484 12.569 35.394 18.34 55.2 16l43.52 43.84 18.96 18.96c4.48 4.41 5.122 11.409 1.52 16.56zm0-38.48-46.32-46.96 2.32-.88 1.28-.8 8-6-9.6-12.8-7.36 5.6c-21.387 8.999-46.109 3.877-62.16-12.88-3.066-3.181-8.131-3.274-11.312-.208-.071.068-.14.138-.208.208l-32 33.84c-6.946 7.144-16.705 10.836-26.64 10.08-7.321-.348-14.405-2.7-20.48-6.8l88-88 65.44-14.48 95.76 95.04zm56-56-92.72-93.04 20.72-20.72 92.72 92.72zm48-16-10.32-10.4-104-104-18.4-18.64 112-112h20.72z"/><path d="m48 152c-13.255 0-24 10.745-24 24s10.745 24 24 24 24-10.745 24-24-10.745-24-24-24zm0 32c-4.418 0-8-3.582-8-8s3.582-8 8-8 8 3.582 8 8-3.582 8-8 8z"/><path d="m72 368h-16c0 30.928 25.072 56 56 56v-16c-22.091 0-40-17.909-40-40z"/><path d="m32 368h-16c0 53.019 42.981 96 96 96v-16c-44.183 0-80-35.817-80-80z"/><path d="m400 368c0 22.091-17.909 40-40 40v16c30.928 0 56-25.072 56-56z"/><path d="m440 368c0 44.183-35.817 80-80 80v16c53.019 0 96-42.981 96-96z"/></svg>