<svg enable-background="new 0 0 480 480" viewBox="0 0 480 480" xmlns="http://www.w3.org/2000/svg"><path d="m416 0h-352c-4.418 0-8 3.582-8 8v464c0 4.418 3.582 8 8 8h352c4.418 0 8-3.582 8-8v-464c0-4.418-3.582-8-8-8zm-8 464h-336v-448h336z"/><path d="m384 40h-288c-4.418 0-8 3.582-8 8v120c0 4.418 3.582 8 8 8h288c4.418 0 8-3.582 8-8v-120c0-4.418-3.582-8-8-8zm-8 120h-272v-104h272z"/><path d="m144 208h-48c-4.418 0-8 3.582-8 8v48c0 4.418 3.582 8 8 8h48c4.418 0 8-3.582 8-8v-48c0-4.418-3.582-8-8-8zm-8 48h-32v-32h32z"/><path d="m224 208h-48c-4.418 0-8 3.582-8 8v48c0 4.418 3.582 8 8 8h48c4.418 0 8-3.582 8-8v-48c0-4.418-3.582-8-8-8zm-8 48h-32v-32h32z"/><path d="m304 208h-48c-4.418 0-8 3.582-8 8v48c0 4.418 3.582 8 8 8h48c4.418 0 8-3.582 8-8v-48c0-4.418-3.582-8-8-8zm-8 48h-32v-32h32z"/><path d="m384 208h-48c-4.418 0-8 3.582-8 8v48c0 4.418 3.582 8 8 8h48c4.418 0 8-3.582 8-8v-48c0-4.418-3.582-8-8-8zm-8 48h-32v-32h32z"/><path d="m144 288h-48c-4.418 0-8 3.582-8 8v48c0 4.418 3.582 8 8 8h48c4.418 0 8-3.582 8-8v-48c0-4.418-3.582-8-8-8zm-8 48h-32v-32h32z"/><path d="m224 288h-48c-4.418 0-8 3.582-8 8v48c0 4.418 3.582 8 8 8h48c4.418 0 8-3.582 8-8v-48c0-4.418-3.582-8-8-8zm-8 48h-32v-32h32z"/><path d="m304 288h-48c-4.418 0-8 3.582-8 8v48c0 4.418 3.582 8 8 8h48c4.418 0 8-3.582 8-8v-48c0-4.418-3.582-8-8-8zm-8 48h-32v-32h32z"/><path d="m384 288h-48c-4.418 0-8 3.582-8 8v128c0 4.418 3.582 8 8 8h48c4.418 0 8-3.582 8-8v-128c0-4.418-3.582-8-8-8zm-8 128h-32v-112h32z"/><path d="m144 368h-48c-4.418 0-8 3.582-8 8v48c0 4.418 3.582 8 8 8h48c4.418 0 8-3.582 8-8v-48c0-4.418-3.582-8-8-8zm-8 48h-32v-32h32z"/><path d="m224 368h-48c-4.418 0-8 3.582-8 8v48c0 4.418 3.582 8 8 8h48c4.418 0 8-3.582 8-8v-48c0-4.418-3.582-8-8-8zm-8 48h-32v-32h32z"/><path d="m304 368h-48c-4.418 0-8 3.582-8 8v48c0 4.418 3.582 8 8 8h48c4.418 0 8-3.582 8-8v-48c0-4.418-3.582-8-8-8zm-8 48h-32v-32h32z"/><path d="m248 128h16v16h-16z"/><path d="m280 128h16v16h-16z"/><path d="m312 128h16v16h-16z"/><path d="m344 128h16v16h-16z"/></svg>