<?xml version="1.0" encoding="iso-8859-1"?>
<!-- Generator: Adobe Illustrator 19.0.0, SVG Export Plug-In . SVG Version: 6.00 Build 0)  -->
<svg version="1.1" id="Capa_1" xmlns="http://www.w3.org/2000/svg" xmlns:xlink="http://www.w3.org/1999/xlink" x="0px" y="0px"
	 viewBox="0 0 480 480" style="enable-background:new 0 0 480 480;" xml:space="preserve">
<g>
	<g>
		<path d="M416,0H64c-4.418,0-8,3.582-8,8v464c0,4.418,3.582,8,8,8h352c4.418,0,8-3.582,8-8V8C424,3.582,420.418,0,416,0z M408,464
			H72V16h336V464z"/>
	</g>
</g>
<g>
	<g>
		<path d="M384,40H96c-4.418,0-8,3.582-8,8v120c0,4.418,3.582,8,8,8h288c4.418,0,8-3.582,8-8V48C392,43.582,388.418,40,384,40z
			 M376,160H104V56h272V160z"/>
	</g>
</g>
<g>
	<g>
		<path d="M144,208H96c-4.418,0-8,3.582-8,8v48c0,4.418,3.582,8,8,8h48c4.418,0,8-3.582,8-8v-48C152,211.582,148.418,208,144,208z
			 M136,256h-32v-32h32V256z"/>
	</g>
</g>
<g>
	<g>
		<path d="M224,208h-48c-4.418,0-8,3.582-8,8v48c0,4.418,3.582,8,8,8h48c4.418,0,8-3.582,8-8v-48C232,211.582,228.418,208,224,208z
			 M216,256h-32v-32h32V256z"/>
	</g>
</g>
<g>
	<g>
		<path d="M304,208h-48c-4.418,0-8,3.582-8,8v48c0,4.418,3.582,8,8,8h48c4.418,0,8-3.582,8-8v-48C312,211.582,308.418,208,304,208z
			 M296,256h-32v-32h32V256z"/>
	</g>
</g>
<g>
	<g>
		<path d="M384,208h-48c-4.418,0-8,3.582-8,8v48c0,4.418,3.582,8,8,8h48c4.418,0,8-3.582,8-8v-48C392,211.582,388.418,208,384,208z
			 M376,256h-32v-32h32V256z"/>
	</g>
</g>
<g>
	<g>
		<path d="M144,288H96c-4.418,0-8,3.582-8,8v48c0,4.418,3.582,8,8,8h48c4.418,0,8-3.582,8-8v-48C152,291.582,148.418,288,144,288z
			 M136,336h-32v-32h32V336z"/>
	</g>
</g>
<g>
	<g>
		<path d="M224,288h-48c-4.418,0-8,3.582-8,8v48c0,4.418,3.582,8,8,8h48c4.418,0,8-3.582,8-8v-48C232,291.582,228.418,288,224,288z
			 M216,336h-32v-32h32V336z"/>
	</g>
</g>
<g>
	<g>
		<path d="M304,288h-48c-4.418,0-8,3.582-8,8v48c0,4.418,3.582,8,8,8h48c4.418,0,8-3.582,8-8v-48C312,291.582,308.418,288,304,288z
			 M296,336h-32v-32h32V336z"/>
	</g>
</g>
<g>
	<g>
		<path d="M384,288h-48c-4.418,0-8,3.582-8,8v128c0,4.418,3.582,8,8,8h48c4.418,0,8-3.582,8-8V296C392,291.582,388.418,288,384,288z
			 M376,416h-32V304h32V416z"/>
	</g>
</g>
<g>
	<g>
		<path d="M144,368H96c-4.418,0-8,3.582-8,8v48c0,4.418,3.582,8,8,8h48c4.418,0,8-3.582,8-8v-48C152,371.582,148.418,368,144,368z
			 M136,416h-32v-32h32V416z"/>
	</g>
</g>
<g>
	<g>
		<path d="M224,368h-48c-4.418,0-8,3.582-8,8v48c0,4.418,3.582,8,8,8h48c4.418,0,8-3.582,8-8v-48C232,371.582,228.418,368,224,368z
			 M216,416h-32v-32h32V416z"/>
	</g>
</g>
<g>
	<g>
		<path d="M304,368h-48c-4.418,0-8,3.582-8,8v48c0,4.418,3.582,8,8,8h48c4.418,0,8-3.582,8-8v-48C312,371.582,308.418,368,304,368z
			 M296,416h-32v-32h32V416z"/>
	</g>
</g>
<g>
	<g>
		<rect x="248" y="128" width="16" height="16"/>
	</g>
</g>
<g>
	<g>
		<rect x="280" y="128" width="16" height="16"/>
	</g>
</g>
<g>
	<g>
		<rect x="312" y="128" width="16" height="16"/>
	</g>
</g>
<g>
	<g>
		<rect x="344" y="128" width="16" height="16"/>
	</g>
</g>
<g>
</g>
<g>
</g>
<g>
</g>
<g>
</g>
<g>
</g>
<g>
</g>
<g>
</g>
<g>
</g>
<g>
</g>
<g>
</g>
<g>
</g>
<g>
</g>
<g>
</g>
<g>
</g>
<g>
</g>
</svg>
