<svg enable-background="new 0 0 480 480" viewBox="0 0 480 480" xmlns="http://www.w3.org/2000/svg"><path d="m120 32h152v16h-152z"/><path d="m132.014 51.636h16v40h-16z" transform="matrix(.0166 -.9999 .9999 .0166 66.0667 210.4427)"/><path d="m176 64h96v16h-96z"/><path d="m383.6 85.44c.03-.239.03-.481 0-.72-.382-.873-.894-1.682-1.52-2.4l-80-80c-.718-.626-1.527-1.138-2.4-1.52h-.72c-.782-.389-1.618-.659-2.48-.8h-208.48c-4.418 0-8 3.582-8 8v88h-72c-4.418 0-8 3.582-8 8v368c0 4.418 3.582 8 8 8h256c4.418 0 8-3.582 8-8v-56h104c4.418 0 8-3.582 8-8v-320s0 0 0-.48c-.048-.707-.183-1.405-.4-2.08zm-79.6-58.16 52.72 52.72h-52.72zm-48 436.72h-240v-352h240zm112-64h-96v-24h64c4.418 0 8-3.582 8-8v-240c0-4.418-3.582-8-8-8h-64v-16c0-4.418-3.582-8-8-8h-168v-80h192v72c0 4.418 3.582 8 8 8h72zm-40-216v32h-56v-32zm-56-16v-32h56v32zm56 64v32h-56v-32zm0 48v32h-56v-32zm0 48v32h-56v-32z"/><path d="m232 136h-192c-4.418 0-8 3.582-8 8v64c0 4.418 3.582 8 8 8h192c4.418 0 8-3.582 8-8v-64c0-4.418-3.582-8-8-8zm-8 64h-176v-48h176z"/><path d="m232 240h-192c-4.418 0-8 3.582-8 8v192c0 4.418 3.582 8 8 8h192c4.418 0 8-3.582 8-8v-192c0-4.418-3.582-8-8-8zm-152 192h-32v-32h32zm0-48h-32v-32h32zm0-48h-32v-32h32zm0-48h-32v-32h32zm48 144h-32v-32h32zm0-48h-32v-32h32zm0-48h-32v-32h32zm0-48h-32v-32h32zm48 144h-32v-32h32zm0-48h-32v-32h32zm0-48h-32v-32h32zm0-48h-32v-32h32zm48 144h-32v-80h32zm0-96h-32v-32h32zm0-48h-32v-32h32z"/><path d="m96 168h16v16h-16z"/><path d="m128 168h16v16h-16z"/><path d="m160 168h16v16h-16z"/><path d="m192 168h16v16h-16z"/><path d="m472 88h-24v-24c0-4.418-3.582-8-8-8h-32c-4.418 0-8 3.582-8 8v280c-.012 2.126.823 4.17 2.32 5.68l16 16c3.111 3.137 8.177 3.158 11.314.046.016-.015.031-.031.046-.046l16-16c1.497-1.51 2.332-3.554 2.32-5.68v-240h16v104h16v-112c0-4.418-3.582-8-8-8zm-40 252.72-8 8-8-8v-140.72h16zm0-156.72h-16v-80h16zm0-96h-16v-16h16z"/></svg>