<svg enable-background="new 0 0 480.639 480.639" viewBox="0 0 480.639 480.639" xmlns="http://www.w3.org/2000/svg"><circle cx="96.212" cy="176.114" r="8"/><circle cx="376.212" cy="176.114" r="8"/><path d="m168.212 32.114h144v16h-144z"/><path d="m168.212 64.114h32v16h-32z"/><path d="m216.212 64.114h96v16h-96z"/><path d="m312.212.114h-144c-17.673 0-32 14.327-32 32v48c.011 14.583 9.88 27.314 24 30.96v17.04c.005 2.886 1.564 5.546 4.08 6.96 1.196.678 2.546 1.036 3.92 1.04 1.436 0 2.845-.387 4.08-1.12l3.92-2.32v11.44c0 17.673 14.327 32 32 32h21.76l38.16 22.88c1.235.733 2.644 1.12 4.08 1.12 1.374-.004 2.724-.362 3.92-1.04 2.516-1.414 4.075-4.074 4.08-6.96v-16h8c17.673 0 32-14.327 32-32v-16c-.084-5.653-1.686-11.179-4.64-16 16.349-1.726 28.731-15.56 28.64-32v-48c0-17.674-14.327-32-32-32zm-8 144c0 8.837-7.163 16-16 16h-16c-4.418 0-8 3.582-8 8v9.84l-27.92-16.72c-1.235-.733-2.644-1.12-4.08-1.12h-24c-8.837 0-16-7.163-16-16v-21.04l18.24-10.96h77.76c8.837 0 16 7.163 16 16zm24-64c0 8.837-7.163 16-16 16h-104c-1.436 0-2.845.387-4.08 1.12l-27.92 16.72v-9.84c0-4.418-3.582-8-8-8-8.837 0-16-7.163-16-16v-48c0-8.837 7.163-16 16-16h144c8.837 0 16 7.163 16 16z"/><path d="m208.212 128.114h48v16h-48z"/><path d="m272.212 128.114h16v16h-16z"/><path d="m475.209 464.526c-.012-.004-.025-.008-.037-.013l-42.96-14.16v-26.24h16c17.673 0 32-14.327 32-32v-112c0-13.255-10.745-24-24-24-3.646.021-7.235.898-10.48 2.56-3.717-10.302-11.495-18.63-21.52-23.04 10.114-9.046 15.927-21.951 16-35.52v-40c0-26.51-21.49-48-48-48h-44c-11.046.025-19.98 9-19.955 20.045.019 8.576 5.504 16.185 13.635 18.915l-13.68 46.88c-.678 2.393-.205 4.965 1.28 6.96 1.511 2.014 3.882 3.2 6.4 3.2h8.64c1.937 10.67 7.471 20.354 15.68 27.44-14.544 6.347-23.96 20.692-24 36.56v16h-116.48l20-53.2-15.04-5.6-22 58.8h-58.48v-16c-.04-15.868-9.456-30.213-24-36.56 8.091-7.134 13.509-16.813 15.36-27.44h8.64c2.518 0 4.889-1.186 6.4-3.2 1.485-1.995 1.958-4.567 1.28-6.96l-15.68-54.32c5.126-6.776 7.931-15.024 8-23.52 0-4.418-3.582-8-8-8h-64c-17.673 0-32 14.327-32 32v56c.073 13.569 5.886 26.474 16 35.52-9.964 4.445-17.68 12.768-21.36 23.04-3.293-1.687-6.94-2.564-10.64-2.56-13.255 0-24 10.745-24 24v112c0 17.673 14.327 32 32 32h16v26.24l-42.56 14.16c-4.308 1.414-6.654 6.052-5.24 10.36s6.052 6.654 10.36 5.24l45.44-15.6 45.44 15.6c.85.11 1.71.11 2.56 0 3.439.009 6.499-2.182 7.6-5.44 1.421-4.184-.819-8.727-5.003-10.148-.012-.004-.025-.008-.037-.013l-42.56-14.16v-26.24h24c13.255-.037 23.97-10.813 23.932-24.067-.008-2.703-.472-5.385-1.372-7.933h17.44v80c0 4.418 3.582 8 8 8h208c4.418 0 8-3.582 8-8v-80h17.44c-4.418 12.497 2.131 26.209 14.627 30.627 2.548.901 5.23 1.365 7.933 1.373h24v26.24l-42.56 14.16c-4.197 1.414-6.454 5.963-5.04 10.16s5.963 6.454 10.16 5.04l45.44-15.2 45.44 15.6c.85.11 1.71.11 2.56 0 3.585.187 6.856-2.037 8-5.44 1.42-4.182-.82-8.725-5.003-10.146zm-52.117-312.412c.702 2.61 1.079 5.297 1.12 8v1.52l-8-9.52zm-78.88-20c0-2.209 1.791-4 4-4h44c7.723.05 15.168 2.891 20.96 8h-64.96c-2.21 0-4-1.791-4-4zm8 60h-5.36l11.36-40h37.6l28.4 34.88v13.12c0 17.673-14.327 32-32 32s-32-14.327-32-32c0-4.419-3.582-8-8-8zm0 79.999c0-13.255 10.745-24 24-24h8v72h16v-72h8c13.255 0 24 10.745 24 24v64h-80zm-208 32h192v16h-192zm-88-159.999c0-8.837 7.163-16 16-16h54.64c-3.392 9.593-12.465 16.005-22.64 16h-32c-2.518 0-4.889 1.186-6.4 3.2l-9.6 12.8zm0 42.64 20-26.64h28c6.584-.048 13.049-1.754 18.8-4.96l10.56 36.96h-5.36c-4.418 0-8 3.582-8 8 0 17.673-14.327 32-32 32s-32-14.327-32-32zm-8 85.359c0-13.255 10.745-24 24-24h8v72h16v-72h8c13.255 0 24 10.745 24 24v64h-80zm40 136h-56c-8.837 0-16-7.163-16-16v-112c0-4.418 3.582-8 8-8s8 3.582 8 8v64c.027 11.82 4.414 23.214 12.32 32h-4.32c-4.418 0-8 3.582-8 8s3.582 8 8 8h48c4.418 0 8 3.582 8 8s-3.582 8-8 8zm56 56v-80c0-4.418-3.582-8-8-8h-56c-14.583-.011-27.314-9.88-30.96-24h94.96c13.255 0 24 10.745 24 24v72c.012 1.568.485 3.098 1.36 4.4l8 11.6zm88 0h-35.68l-12.32-18.4v-69.6c0-22.091-17.909-40-40-40h88zm64-18.4-12.32 18.4h-35.68v-128h88c-22.091 0-40 17.909-40 40zm48-69.6c-4.418 0-8 3.582-8 8v80h-33.04l8-11.6c.763-1.336 1.124-2.864 1.04-4.4v-72c0-13.255 10.745-24 24-24h94.96c-3.646 14.12-16.377 23.989-30.96 24zm48 32c-4.418 0-8-3.582-8-8s3.582-8 8-8h48c4.418 0 8-3.582 8-8s-3.582-8-8-8h-4.32c7.907-8.786 12.293-20.18 12.32-32v-64c0-4.418 3.582-8 8-8s8 3.582 8 8v112c0 8.837-7.163 16-16 16z"/></svg>