<svg enable-background="new 0 0 480 480" viewBox="0 0 480 480" xmlns="http://www.w3.org/2000/svg"><path d="m352 0h-296c-4.418 0-8 3.582-8 8v40h-40c-4.418 0-8 3.582-8 8v416c0 4.418 3.582 8 8 8h296c4.418 0 8-3.582 8-8v-32h40c4.418 0 8-3.582 8-8v-424c0-4.418-3.582-8-8-8zm-56 464h-280v-400h200v72c0 4.418 3.582 8 8 8h72zm-64-336v-52.72l52.72 52.72zm112 296h-32v-288c.012-2.126-.823-4.17-2.32-5.68l-18.4-18.32h20.72v-16h-36.72l-24-24h12.72v-16h-28.72l-5.6-5.68c-1.51-1.497-3.554-2.332-5.68-2.32h-160v-32h280z"/><path d="m472 120h-16c0-17.673-14.327-32-32-32s-32 14.327-32 32v312c0 1.436.387 2.845 1.12 4.08l24 40c2.255 3.8 7.163 5.052 10.962 2.798 1.152-.684 2.114-1.646 2.798-2.798l24-40c.733-1.235 1.12-2.644 1.12-4.08v-296h8v144h16v-152c0-4.418-3.582-8-8-8zm-48 336.48-9.84-16.48h19.68zm16-32.48h-32v-144h32zm0-160h-32v-128h32zm-32-144c0-8.837 7.163-16 16-16s16 7.163 16 16z"/><path d="m56 352h200v16h-200z"/><path d="m56 392h120v16h-120z"/><path d="m104 312h152v16h-152z"/><path d="m56 312h32v16h-32z"/><path d="m232 272v-72h-16v72h-16v-56h-16v56h-16v-80h-16v80h-16v-56h-16v56h-16v-24h-16v24h-16v-80h-16v88c0 4.418 3.582 8 8 8h192v-16z"/><path d="m56 104h104v16h-104z"/><path d="m56 144h72v16h-72z"/><path d="m280 56h32v16h-32z"/><path d="m192 392h32v16h-32z"/></svg>