<?xml version="1.0" encoding="iso-8859-1"?>
<!-- Generator: Adobe Illustrator 19.0.0, SVG Export Plug-In . SVG Version: 6.00 Build 0)  -->
<svg version="1.1" id="Capa_1" xmlns="http://www.w3.org/2000/svg" xmlns:xlink="http://www.w3.org/1999/xlink" x="0px" y="0px"
	 viewBox="0 0 475.888 475.888" style="enable-background:new 0 0 475.888 475.888;" xml:space="preserve">
<g>
	<g>
		<path d="M470.8,175.142c-4.598-5.87-11.664-9.27-19.12-9.2H424v-64c0-17.673-14.327-32-32-32H193.92
			c-4.237-0.018-8.293-1.715-11.28-4.72l-25.92-25.92c-6.036-5.956-14.161-9.315-22.64-9.36H32c-17.673,0-32,14.327-32,32v376
			c-0.012,1.795,0.579,3.542,1.68,4.96c1.527,1.932,3.858,3.053,6.32,3.04h400c3.766,0.11,7.097-2.423,8-6.08l59.2-244.24
			C476.947,188.482,475.326,180.935,470.8,175.142z M16,61.942c0-8.837,7.163-16,16-16h102.08c4.237,0.018,8.293,1.715,11.28,4.72
			l25.92,25.92c6.036,5.956,14.161,9.315,22.64,9.36H392c8.837,0,16,7.163,16,16v64h-32v-40c0-4.418-3.582-8-8-8H56
			c-4.418,0-8,3.582-8,8v119.04l-32,128V61.942z M216,165.942v12.72l-20.32,20.24c-1.095,1.163-2.331,2.184-3.68,3.04v-36h-16v40
			h-24v-40h-16v40h-24v-40H96v40H82.72c-6.733,0.033-13.283,2.188-18.72,6.16v-78.16h296v32H245.28
			c-4.532,0.023-9.026,0.835-13.28,2.4v-2.4H216z M459.2,191.862l-57.52,238.08H18.24l48.96-195.84
			c1.765-7.138,8.167-12.154,15.52-12.16h96c10.616,0.019,20.804-4.183,28.32-11.68l21.28-21.28
			c4.497-4.502,10.597-7.034,16.96-7.04h206.4c2.434,0.011,4.731,1.13,6.24,3.04h-0.24
			C459.224,186.917,459.785,189.457,459.2,191.862z"/>
	</g>
</g>
<g>
</g>
<g>
</g>
<g>
</g>
<g>
</g>
<g>
</g>
<g>
</g>
<g>
</g>
<g>
</g>
<g>
</g>
<g>
</g>
<g>
</g>
<g>
</g>
<g>
</g>
<g>
</g>
<g>
</g>
</svg>
