<svg enable-background="new 0 0 475.888 475.888" viewBox="0 0 475.888 475.888" xmlns="http://www.w3.org/2000/svg"><path d="m470.8 175.142c-4.598-5.87-11.664-9.27-19.12-9.2h-27.68v-64c0-17.673-14.327-32-32-32h-198.08c-4.237-.018-8.293-1.715-11.28-4.72l-25.92-25.92c-6.036-5.956-14.161-9.315-22.64-9.36h-102.08c-17.673 0-32 14.327-32 32v376c-.012 1.795.579 3.542 1.68 4.96 1.527 1.932 3.858 3.053 6.32 3.04h400c3.766.11 7.097-2.423 8-6.08l59.2-244.24c1.747-7.14.126-14.687-4.4-20.48zm-454.8-113.2c0-8.837 7.163-16 16-16h102.08c4.237.018 8.293 1.715 11.28 4.72l25.92 25.92c6.036 5.956 14.161 9.315 22.64 9.36h198.08c8.837 0 16 7.163 16 16v64h-32v-40c0-4.418-3.582-8-8-8h-312c-4.418 0-8 3.582-8 8v119.04l-32 128zm200 104v12.72l-20.32 20.24c-1.095 1.163-2.331 2.184-3.68 3.04v-36h-16v40h-24v-40h-16v40h-24v-40h-16v40h-13.28c-6.733.033-13.283 2.188-18.72 6.16v-78.16h296v32h-114.72c-4.532.023-9.026.835-13.28 2.4v-2.4zm243.2 25.92-57.52 238.08h-383.44l48.96-195.84c1.765-7.138 8.167-12.154 15.52-12.16h96c10.616.019 20.804-4.183 28.32-11.68l21.28-21.28c4.497-4.502 10.597-7.034 16.96-7.04h206.4c2.434.011 4.731 1.13 6.24 3.04h-.24c1.544 1.935 2.105 4.475 1.52 6.88z"/></svg>