<svg enable-background="new 0 0 480.253 480.253" viewBox="0 0 480.253 480.253" xmlns="http://www.w3.org/2000/svg"><path d="m408.127 160.015h-32c-2.729.022-5.435.509-8 1.44v-65.44c-1.094-54.001-45.676-96.937-99.68-96h-60.32c-52.442-.578-95.422 41.467-96 93.908-.008.697-.008 1.394 0 2.092v65.44c-2.565-.931-5.271-1.418-8-1.44h-32c-13.255 0-24 10.745-24 24s10.745 24 24 24h8v49.2c.044 12.574 10.226 22.756 22.8 22.8h10.32c3.638 14.091 16.327 23.953 30.88 24h56v24c0 4.418 3.582 8 8 8h8v24c.009.754-.535 1.401-1.28 1.52l-66.24 11.04c-16.386 2.733-29.378 15.311-32.64 31.6l-3.2 16c-15.504 8.484-21.195 27.929-12.711 43.433s27.929 21.195 43.433 12.711c10.332-5.654 16.724-16.526 16.638-28.304-.011-2.069-.225-4.133-.64-6.16l6.64-26.64 49.6-6.24v18c-11.69 13.255-10.421 33.476 2.834 45.166s33.476 10.421 45.166-2.834c10.667-12.095 10.667-30.237 0-42.332v-17.92l49.6 6.24 6.8 26.64c-.196 2.022-.196 4.058 0 6.08-.084 17.673 14.174 32.068 31.847 32.152s32.068-14.174 32.152-31.847c.056-11.75-6.332-22.585-16.639-28.225l-3.2-16c-3.262-16.289-16.254-28.867-32.64-31.6l-66.24-11.04c-.715-.114-1.251-.716-1.28-1.44v-24h8c4.418 0 8-3.582 8-8v-24h56c14.553-.047 27.242-9.909 30.88-24h10.32c12.574-.044 22.756-10.226 22.8-22.8v-49.2h8c13.255 0 24-10.745 24-24s-10.746-24-24-24zm-296 104h-9.2c-3.755 0-6.8-3.044-6.8-6.8v-49.2h8c2.729-.022 5.435-.509 8-1.44zm-8-72h-32c-4.418 0-8-3.582-8-8s3.582-8 8-8h32c4.418 0 8 3.582 8 8s-3.582 8-8 8zm24 272c-8.837 0-16-7.163-16-16s7.163-16 16-16 16 7.163 16 16-7.164 16-16 16zm112 0c-8.837 0-16-7.163-16-16s7.163-16 16-16 16 7.163 16 16-7.164 16-16 16zm128-16c0 8.837-7.163 16-16 16s-16-7.163-16-16 7.163-16 16-16 16 7.163 16 16zm-39.12-59.76c9.838 1.634 17.641 9.182 19.6 18.96l1.76 8.8c-6.638.403-12.985 2.863-18.16 7.04l-4.08-16.96c-.805-3.216-3.509-5.602-6.8-6l-64-8c-2.258-.276-4.528.422-6.24 1.92-1.816 1.472-2.897 3.664-2.96 6v17.12c-5.229-1.494-10.771-1.494-16 0v-17.12c-.003-2.298-.994-4.483-2.72-6-1.712-1.498-3.982-2.196-6.24-1.92l-64 8c-3.291.398-5.995 2.784-6.8 6l-4.32 17.12c-5.155-4.234-11.504-6.752-18.16-7.2l1.76-8.96c1.96-9.778 9.762-17.326 19.6-18.96l66.24-11.04c8.376-1.362 14.555-8.555 14.64-17.04v-24h16v24c.007 8.546 6.205 15.828 14.64 17.2zm-64.88-68.24h-48v-16h48zm66.24-32h-58.24-122.24c-11.004.169-20.375-7.962-21.76-18.88 1.407-7.698 8.176-13.248 16-13.12h192c7.824-.128 14.593 5.422 16 13.12-1.385 10.918-10.757 19.049-21.76 18.88zm21.76-43.52c-4.832-2.908-10.36-4.456-16-4.48h-192c-5.64.024-11.168 1.572-16 4.48v-148.48c-.489-43.694 34.536-79.511 78.23-80 .59-.007 1.18-.007 1.77 0h60.32c45.169-.939 82.588 34.835 83.68 80zm32 12.72c0 3.755-3.044 6.8-6.8 6.8h-9.2v-57.44c2.565.931 5.271 1.418 8 1.44h8zm24-65.2h-32c-4.418 0-8-3.582-8-8s3.582-8 8-8h32c4.418 0 8 3.582 8 8s-3.582 8-8 8z"/></svg>