<svg enable-background="new 0 0 480.074 480.074" viewBox="0 0 480.074 480.074" xmlns="http://www.w3.org/2000/svg"><path d="m472.037 48c4.418 0 8-3.582 8-8v-32c0-4.418-3.582-8-8-8h-464c-4.418 0-8 3.582-8 8v32c0 4.418 3.582 8 8 8h8v352h-16v16h232v17.44c-12.497 4.418-19.046 18.131-14.627 30.627 4.418 12.497 18.131 19.046 30.627 14.627 12.497-4.418 19.046-18.131 14.627-30.627-2.416-6.835-7.793-12.211-14.627-14.627v-17.44h232v-16h-16v-352zm-232 416c-4.418 0-8-3.582-8-8s3.582-8 8-8 8 3.582 8 8-3.582 8-8 8zm208-64h-416v-352h416zm-432-368v-16h448v16z"/><path d="m357.717 274.32c6.805-15.904 10.316-33.022 10.32-50.32.055-46.508-25.121-89.386-65.76-112l13.52-16h36.24v-16h-40c-2.379-.004-4.637 1.052-6.16 2.88l-18.48 22.24c-44.762-17.928-95.809-9.075-131.92 22.88l-5.76-5.76c-1.523-1.468-3.565-2.274-5.68-2.24h-24v16h20.72l3.36 3.44c-44.629 50.652-42.249 127.257 5.44 175.04 49.98 49.948 130.98 49.948 180.96 0 7.531-7.554 14.089-16.019 19.52-25.2l20.32 20.4 11.36-11.36zm-109.68-162.32c9.707.65 19.284 2.587 28.48 5.76l-10.64 12.8 12.32 10.56 13.68-16.4c7.722 4.02 14.945 8.933 21.52 14.64l-65.36 65.36zm-92.667 179.228c-33.001-41.037-32.956-99.521.107-140.508l14.88 14.96 11.36-11.36-14.96-14.96c18.183-16.012 41.114-25.623 65.28-27.36v112c.027.932.216 1.853.56 2.72v.48c.306.621.712 1.189 1.2 1.68v.48l79.04 78.96c-48.203 38.763-118.704 31.111-157.467-17.092zm190.027-29.228-11.68-11.68-11.36 11.36 16 16c-3.846 7.053-8.432 13.677-13.68 19.76l-73.36-73.44 73.36-73.36c26.552 30.634 34.476 73.226 20.72 111.36z"/><path d="m368.037 80h56v16h-56z"/><path d="m368.037 112h40v16h-40z"/><path d="m56.037 120h48v16h-48z"/><path d="m56.037 152h48v16h-48z"/><path d="m368.037 328h56v16h-56z"/><path d="m368.037 360h56v16h-56z"/><path d="m56.037 328h56v16h-56z"/><path d="m56.037 360h40v16h-40z"/><path d="m56.037 296h56v16h-56z"/></svg>