<?xml version="1.0" encoding="iso-8859-1"?>
<!-- Generator: Adobe Illustrator 19.0.0, SVG Export Plug-In . SVG Version: 6.00 Build 0)  -->
<svg version="1.1" id="Capa_1" xmlns="http://www.w3.org/2000/svg" xmlns:xlink="http://www.w3.org/1999/xlink" x="0px" y="0px"
	 viewBox="0 0 480.074 480.074" style="enable-background:new 0 0 480.074 480.074;" xml:space="preserve">
<g>
	<g>
		<path d="M472.037,48c4.418,0,8-3.582,8-8V8c0-4.418-3.582-8-8-8h-464c-4.418,0-8,3.582-8,8v32c0,4.418,3.582,8,8,8h8v352h-16v16
			h232v17.44c-12.497,4.418-19.046,18.131-14.627,30.627c4.418,12.497,18.131,19.046,30.627,14.627
			c12.497-4.418,19.046-18.131,14.627-30.627c-2.416-6.835-7.793-12.211-14.627-14.627V416h232v-16h-16V48H472.037z M240.037,464
			c-4.418,0-8-3.582-8-8s3.582-8,8-8s8,3.582,8,8S244.455,464,240.037,464z M448.037,400h-416V48h416V400z M16.037,32V16h448v16
			H16.037z"/>
	</g>
</g>
<g>
	<g>
		<path d="M357.717,274.32c6.805-15.904,10.316-33.022,10.32-50.32c0.055-46.508-25.121-89.386-65.76-112l13.52-16h36.24V80h-40
			c-2.379-0.004-4.637,1.052-6.16,2.88l-18.48,22.24c-44.762-17.928-95.809-9.075-131.92,22.88l-5.76-5.76
			c-1.523-1.468-3.565-2.274-5.68-2.24h-24v16h20.72l3.36,3.44c-44.629,50.652-42.249,127.257,5.44,175.04
			c49.98,49.948,130.98,49.948,180.96,0c7.531-7.554,14.089-16.019,19.52-25.2l20.32,20.4l11.36-11.36L357.717,274.32z M248.037,112
			c9.707,0.65,19.284,2.587,28.48,5.76l-10.64,12.8l12.32,10.56l13.68-16.4c7.722,4.02,14.945,8.933,21.52,14.64l-65.36,65.36V112z
			 M155.37,291.228c-33.001-41.037-32.956-99.521,0.107-140.508l14.88,14.96l11.36-11.36l-14.96-14.96
			c18.183-16.012,41.114-25.623,65.28-27.36v112c0.027,0.932,0.216,1.853,0.56,2.72c0,0,0,0,0,0.48
			c0.306,0.621,0.712,1.189,1.2,1.68v0.48l79.04,78.96C264.634,347.083,194.133,339.431,155.37,291.228z M345.397,262L345.397,262
			l-11.68-11.68l-11.36,11.36l16,16c-3.846,7.053-8.432,13.677-13.68,19.76L251.317,224l73.36-73.36
			C351.229,181.274,359.153,223.866,345.397,262z"/>
	</g>
</g>
<g>
	<g>
		<rect x="368.037" y="80" width="56" height="16"/>
	</g>
</g>
<g>
	<g>
		<rect x="368.037" y="112" width="40" height="16"/>
	</g>
</g>
<g>
	<g>
		<rect x="56.037" y="120" width="48" height="16"/>
	</g>
</g>
<g>
	<g>
		<rect x="56.037" y="152" width="48" height="16"/>
	</g>
</g>
<g>
	<g>
		<rect x="368.037" y="328" width="56" height="16"/>
	</g>
</g>
<g>
	<g>
		<rect x="368.037" y="360" width="56" height="16"/>
	</g>
</g>
<g>
	<g>
		<rect x="56.037" y="328" width="56" height="16"/>
	</g>
</g>
<g>
	<g>
		<rect x="56.037" y="360" width="40" height="16"/>
	</g>
</g>
<g>
	<g>
		<rect x="56.037" y="296" width="56" height="16"/>
	</g>
</g>
<g>
</g>
<g>
</g>
<g>
</g>
<g>
</g>
<g>
</g>
<g>
</g>
<g>
</g>
<g>
</g>
<g>
</g>
<g>
</g>
<g>
</g>
<g>
</g>
<g>
</g>
<g>
</g>
<g>
</g>
</svg>
