<svg enable-background="new 0 0 480.151 480.151" viewBox="0 0 480.151 480.151" xmlns="http://www.w3.org/2000/svg"><path d="m336.076 288.151h-26.24l-4.48-13.52c14.443-12.518 24.482-29.345 28.64-48 1.378-6.361 2.075-12.851 2.08-19.36v-39.12c17.673 0 32-14.327 32-32s-14.327-32-32-32v-40c0-30.928-25.072-56-56-56h-95.2l-39.2-8c-2.353-.464-4.79.153-6.64 1.68-1.902 1.543-2.993 3.871-2.96 6.32v24c.058 11.059 4.691 21.6 12.8 29.12-3.988 13.924-5.61 28.419-4.8 42.88-17.673 0-32 14.327-32 32s14.327 32 32 32v39.12c.01 6.482.708 12.945 2.08 19.28 4.158 18.655 14.197 35.482 28.64 48l-4.48 13.6h-26.24c-39.765 0-72 32.235-72 72v120h16v-120c0-30.928 25.072-56 56-56h26.72l61.92 147.12c1.732 4.065 6.431 5.956 10.495 4.225 1.901-.81 3.415-2.324 4.225-4.225l61.92-147.12h26.72c30.928 0 56 25.072 56 56v120h16v-120c0-39.765-32.236-72-72-72zm0-168c8.837 0 16 7.163 16 16s-7.163 16-16 16zm-192 32c-8.837 0-16-7.163-16-16s7.163-16 16-16zm8-120v-14.24l30.4 6.24h1.6 96c22.091 0 40 17.909 40 40v34.96c-11.257-7.908-17.373-21.272-16-34.96 0-4.418-3.582-8-8-8h-120c-13.255 0-24-10.745-24-24zm72 87.04-6.56 52.24c-9.162 2.71-17.774 7.016-25.44 12.72-3.682 2.774-8.905 2.099-11.76-1.52l-20.24-25.28v-48.72c11.927-10.127 21.717-22.529 28.8-36.48h99.2c1.76 21.2 10.96 30.48 25.2 42.4.641.547 1.372.98 2.16 1.28l4.32 1.76v40l-20.24 25.28c-2.876 3.383-7.888 3.944-11.44 1.28-13.864-10.355-30.696-15.966-48-16-1.973 0-3.973 0-6 0l6-47.04zm-64-32.96c.353-5.56 1.209-11.076 2.56-16.48 2.612.927 5.324 1.545 8.08 1.84-3.24 5.096-6.794 9.985-10.64 14.64zm24.559 209.92 3.84-11.52c7.053 3.952 14.618 6.913 22.48 8.8l-16.8 25.12zm29.521 70.16-12.56-30.16 14.48-21.84 7.36 14.8zm25.92 61.2-15.44-36.64 13.68-54.72h3.52l13.68 54.72zm-13.6-128.48 2-3.04h4.48 14.24l4.48.16 2 3.04-10.56 20.96h-6.08zm39.36 67.2-9.28-37.2 7.52-14.72 14.48 21.84zm20.16-47.68-16.8-25.12c7.878-1.988 15.444-5.057 22.48-9.12l3.84 11.84zm-38.801-38.4h-14.24c-34.258.329-64.003-23.528-71.12-57.04-1.194-5.249-1.784-10.617-1.76-16v-24l8 9.68c8.056 10.525 23.12 12.527 33.645 4.471.065-.05.13-.1.195-.151 8.44-6.302 18.305-10.424 28.72-12h1.6c2.592-.476 5.21-.797 7.84-.96 13.841.04 27.303 4.527 38.4 12.8 10.478 8.059 25.501 6.128 33.6-4.32l8-9.68v24c.024 5.383-.566 10.751-1.76 16-7.05 33.576-36.813 57.513-71.12 57.2z"/><path d="m288.076 392.151h72v16h-72z"/><circle cx="192.076" cy="136.151" r="16"/><circle cx="288.076" cy="136.151" r="16"/><path d="m260.476 201.031c-9.428 4.665-19.801 7.101-30.32 7.12h-14.08v16h14.08c13.027-.002 25.874-3.043 37.52-8.88z"/></svg>