<svg xmlns="http://www.w3.org/2000/svg" xmlns:xlink="http://www.w3.org/1999/xlink" version="1.1" style="" xml:space="preserve" width="480.003" height="480.003"><rect id="backgroundrect" width="100%" height="100%" x="0" y="0" fill="none" stroke="none"/>


















<g class="currentLayer" style=""><title>Layer 1</title><g id="svg_1" class="" fill="#ffffff" fill-opacity="1">
	<g id="svg_2" fill="#ffffff" fill-opacity="1">
		<path d="M473.92,192.407L416,178.167V76.407c0.442-15.464-11.736-28.358-27.2-28.8c-15.464-0.442-28.358,11.736-28.8,27.2    l-225.44,85.6H40c-22.091,0-40,17.909-40,40v48c0.077,19.838,14.682,36.623,34.32,39.44l54.24,139.44    c1.187,3.077,4.142,5.11,7.44,5.12c0.955,0.008,1.903-0.154,2.8-0.48l64-24c4.138-1.549,6.237-6.159,4.688-10.297    c-0.064-0.17-0.133-0.338-0.208-0.503l-38.4-84.72l11.04-22.08L360,374.007c0.442,15.464,13.336,27.642,28.8,27.2    c15.464-0.442,27.642-13.336,27.2-28.8v-101.76l57.92-14.24c3.657-0.903,6.19-4.234,6.08-8v-48    C480.11,196.642,477.578,193.31,473.92,192.407z M16,248.407v-48c0-13.255,10.745-24,24-24h88v96H40    C26.745,272.407,16,261.662,16,248.407z M149.2,395.927l-48.64,18.24l-48.88-125.76h71.36l-10.16,20.4    c-1.036,2.176-1.036,4.704,0,6.88L149.2,395.927z M360,356.807l-216-81.92v-100.96l184-69.52v120h16V98.087l16-6.08V356.807z     M400,372.407c0,6.627-5.373,12-12,12c-6.627,0-12-5.373-12-12v-296c0-6.627,5.373-12,12-12c6.627,0,12,5.373,12,12V372.407z     M464,242.167l-48,12v-59.52l48,12V242.167z" id="svg_3" fill="#ffffff" fill-opacity="1"/>
	</g>
</g><g id="svg_4" class="selected" fill="#ffffff" fill-opacity="1">
	<g id="svg_5" fill="#ffffff" fill-opacity="1">
		<rect x="64" y="192.40699768066406" width="16" height="32" id="svg_6" fill="#ffffff" fill-opacity="1"/>
	</g>
</g><g id="svg_7" class="" fill="#ffffff" fill-opacity="1">
	<g id="svg_8" fill="#ffffff" fill-opacity="1">
		<rect x="32" y="192.40699768066406" width="16" height="32" id="svg_9" fill="#ffffff" fill-opacity="1"/>
	</g>
</g><g id="svg_10">
</g><g id="svg_11">
</g><g id="svg_12">
</g><g id="svg_13">
</g><g id="svg_14">
</g><g id="svg_15">
</g><g id="svg_16">
</g><g id="svg_17">
</g><g id="svg_18">
</g><g id="svg_19">
</g><g id="svg_20">
</g><g id="svg_21">
</g><g id="svg_22">
</g><g id="svg_23">
</g><g id="svg_24">
</g></g></svg>