<svg height="480.003" width="480.003" xmlns="http://www.w3.org/2000/svg"><rect fill="none" height="100%" width="100%"/><g fill="#fff"><path d="m473.92 192.407-57.92-14.24v-101.76c.442-15.464-11.736-28.358-27.2-28.8s-28.358 11.736-28.8 27.2l-225.44 85.6h-94.56c-22.091 0-40 17.909-40 40v48c.077 19.838 14.682 36.623 34.32 39.44l54.24 139.44c1.187 3.077 4.142 5.11 7.44 5.12.955.008 1.903-.154 2.8-.48l64-24c4.138-1.549 6.237-6.159 4.688-10.297-.064-.17-.133-.338-.208-.503l-38.4-84.72 11.04-22.08 220.08 83.68c.442 15.464 13.336 27.642 28.8 27.2s27.642-13.336 27.2-28.8v-101.76l57.92-14.24c3.657-.903 6.19-4.234 6.08-8v-48c.11-3.765-2.422-7.097-6.08-8zm-457.92 56v-48c0-13.255 10.745-24 24-24h88v96h-88c-13.255 0-24-10.745-24-24zm133.2 147.52-48.64 18.24-48.88-125.76h71.36l-10.16 20.4c-1.036 2.176-1.036 4.704 0 6.88zm210.8-39.12-216-81.92v-100.96l184-69.52v120h16v-126.32l16-6.08zm40 15.6c0 6.627-5.373 12-12 12s-12-5.373-12-12v-296c0-6.627 5.373-12 12-12s12 5.373 12 12zm64-130.24-48 12v-59.52l48 12z"/><path d="m64 192.406998h16v32h-16z"/><path d="m32 192.406998h16v32h-16z"/></g></svg>