<?xml version="1.0" encoding="iso-8859-1"?>
<!-- Generator: Adobe Illustrator 19.0.0, SVG Export Plug-In . SVG Version: 6.00 Build 0)  -->
<svg version="1.1" id="Capa_1" xmlns="http://www.w3.org/2000/svg" xmlns:xlink="http://www.w3.org/1999/xlink" x="0px" y="0px"
	 viewBox="0 0 480 480" style="enable-background:new 0 0 480 480;" xml:space="preserve">
<g>
	<g>
		<path d="M352,0H56c-4.418,0-8,3.582-8,8v40H8c-4.418,0-8,3.582-8,8v416c0,4.418,3.582,8,8,8h296c4.418,0,8-3.582,8-8v-32h40
			c4.418,0,8-3.582,8-8V8C360,3.582,356.418,0,352,0z M296,464H16V64h200v72c0,4.418,3.582,8,8,8h72V464z M232,128V75.28L284.72,128
			H232z M344,424h-32V136c0.012-2.126-0.823-4.17-2.32-5.68L291.28,112H312V96h-36.72l-24-24H264V56h-28.72l-5.6-5.68
			c-1.51-1.497-3.554-2.332-5.68-2.32H64V16h280V424z"/>
	</g>
</g>
<g>
	<g>
		<path d="M472,120h-16c0-17.673-14.327-32-32-32c-17.673,0-32,14.327-32,32v312c0,1.436,0.387,2.845,1.12,4.08l24,40
			c2.255,3.8,7.163,5.052,10.962,2.798c1.152-0.684,2.114-1.646,2.798-2.798l24-40c0.733-1.235,1.12-2.644,1.12-4.08V136h8v144h16
			V128C480,123.582,476.418,120,472,120z M424,456.48L414.16,440h19.68L424,456.48z M440,424h-32V280h32V424z M440,264h-32V136h32
			V264z M408,120c0-8.837,7.163-16,16-16s16,7.163,16,16H408z"/>
	</g>
</g>
<g>
	<g>
		<rect x="56" y="352" width="200" height="16"/>
	</g>
</g>
<g>
	<g>
		<rect x="56" y="392" width="120" height="16"/>
	</g>
</g>
<g>
	<g>
		<rect x="104" y="312" width="152" height="16"/>
	</g>
</g>
<g>
	<g>
		<rect x="56" y="312" width="32" height="16"/>
	</g>
</g>
<g>
	<g>
		<path d="M232,272v-72h-16v72h-16v-56h-16v56h-16v-80h-16v80h-16v-56h-16v56h-16v-24H88v24H72v-80H56v88c0,4.418,3.582,8,8,8h192
			v-16H232z"/>
	</g>
</g>
<g>
	<g>
		<rect x="56" y="104" width="104" height="16"/>
	</g>
</g>
<g>
	<g>
		<rect x="56" y="144" width="72" height="16"/>
	</g>
</g>
<g>
	<g>
		<rect x="280" y="56" width="32" height="16"/>
	</g>
</g>
<g>
	<g>
		<rect x="192" y="392" width="32" height="16"/>
	</g>
</g>
<g>
</g>
<g>
</g>
<g>
</g>
<g>
</g>
<g>
</g>
<g>
</g>
<g>
</g>
<g>
</g>
<g>
</g>
<g>
</g>
<g>
</g>
<g>
</g>
<g>
</g>
<g>
</g>
<g>
</g>
</svg>
