<svg enable-background="new 0 0 481.28 481.28" viewBox="0 0 481.28 481.28" xmlns="http://www.w3.org/2000/svg"><path d="m401.28 169.28h-28.72c-2.249-7.332-5.196-14.431-8.8-21.2l20.32-20.32c3.137-3.111 3.158-8.177.046-11.314-.015-.016-.031-.031-.046-.046l-33.92-33.92c-1.51-1.497-3.554-2.332-5.68-2.32-2.126-.012-4.17.823-5.68 2.32l-20.32 20.32c-6.769-3.604-13.868-6.551-21.2-8.8v-28.72c0-4.418-3.582-8-8-8h-48c-4.418 0-8 3.582-8 8v28.72c-7.332 2.249-14.431 5.196-21.2 8.8l-20.32-20.32c-3.111-3.137-8.177-3.158-11.314-.046-.016.015-.031.031-.046.046l-33.92 33.92c-3.137 3.111-3.158 8.177-.046 11.314.015.016.031.031.046.046l20.32 20.32c-3.604 6.769-6.551 13.868-8.8 21.2h-28.72c-4.418 0-8 3.582-8 8v48c0 4.418 3.582 8 8 8h28.72c2.249 7.332 5.196 14.431 8.8 21.2l-20.32 20.32c-3.137 3.111-3.158 8.177-.046 11.314.015.016.031.031.046.046l33.92 33.92c1.51 1.497 3.554 2.332 5.68 2.32 2.126.012 4.17-.823 5.68-2.32l20.32-20.32c6.769 3.604 13.868 6.551 21.2 8.8v28.72c0 4.418 3.582 8 8 8h48c4.418 0 8-3.582 8-8v-28.72c7.332-2.249 14.431-5.196 21.2-8.8l20.32 20.32c3.111 3.137 8.177 3.158 11.314.046.016-.015.031-.031.046-.046l33.92-33.92c3.137-3.111 3.158-8.177.046-11.314-.015-.016-.031-.031-.046-.046l-20.32-20.32c3.604-6.769 6.551-13.868 8.8-21.2h28.72c4.418 0 8-3.582 8-8v-48c0-4.418-3.582-8-8-8zm-8 48.24h-26.88c-3.789-.101-7.13 2.471-8 6.16-2.394 9.941-6.336 19.443-11.68 28.16-1.946 3.145-1.483 7.213 1.12 9.84l19.04 19.04-22.4 22.4-19.04-19.04c-2.627-2.603-6.695-3.066-9.84-1.12-8.717 5.344-18.219 9.286-28.16 11.68-3.689.87-6.261 4.211-6.16 8v26.64h-32v-26.88c.101-3.789-2.471-7.13-6.16-8-9.941-2.394-19.443-6.336-28.16-11.68-3.145-1.946-7.213-1.483-9.84 1.12l-19.04 19.28-22.64-22.64 19.04-19.04c2.603-2.627 3.066-6.695 1.12-9.84-5.344-8.717-9.286-18.219-11.68-28.16-.87-3.689-4.211-6.261-8-6.16h-26.64v-32h26.88c3.789.101 7.13-2.471 8-6.16 2.394-9.94 6.336-19.443 11.68-28.16 1.946-3.145 1.483-7.213-1.12-9.84l-19.28-19.04 22.64-22.64 19.04 19.04c2.627 2.603 6.695 3.066 9.84 1.12 8.717-5.344 18.219-9.286 28.16-11.68 3.601-.851 6.148-4.06 6.16-7.76v-26.88h32v26.88c-.101 3.789 2.471 7.13 6.16 8 9.94 2.394 19.443 6.336 28.16 11.68 3.145 1.946 7.213 1.483 9.84-1.12l19.04-19.04 22.64 22.64-19.04 19.04c-2.603 2.627-3.066 6.695-1.12 9.84 5.344 8.717 9.286 18.219 11.68 28.16.87 3.689 4.211 6.261 8 6.16h26.64z"/><path d="m321.28 201.28c0 30.928-25.072 56-56 56v16c39.765 0 72-32.236 72-72z"/><path d="m193.28 201.28h16c0-30.928 25.072-56 56-56v-16c-39.764 0-72 32.235-72 72z"/><path d="m265.28 169.28c-17.673 0-32 14.327-32 32s14.327 32 32 32 32-14.327 32-32-14.327-32-32-32zm0 48c-8.837 0-16-7.163-16-16s7.163-16 16-16 16 7.163 16 16-7.163 16-16 16z"/><path d="m261.216 1.344c-94.359-.008-175.343 67.193-192.736 159.936l-27.2 142.48c-.84 4.338 1.995 8.535 6.333 9.375.549.106 1.108.155 1.667.145h48v56c0 39.764 32.235 72 72 72h40v32c0 4.418 3.582 8 8 8h232c4.418 0 8-3.582 8-8v-275.84c.009-108.292-87.772-196.087-196.064-196.096zm180.064 463.936h-216v-32c0-4.418-3.582-8-8-8h-48c-30.928 0-56-25.072-56-56v-64c0-4.418-3.582-8-8-8h-46.32l25.2-133.36c18.669-97.732 113.032-161.826 210.764-143.156 84.824 16.204 146.22 90.319 146.356 176.676z"/><path d="m98.56 33.28c-12.932-2.218-23.062-12.348-25.28-25.28 0-4.418-3.582-8-8-8s-8 3.582-8 8c-2.218 12.932-12.348 23.062-25.28 25.28-4.418 0-8 3.582-8 8s3.582 8 8 8c12.932 2.218 23.062 12.348 25.28 25.28 0 4.418 3.582 8 8 8s8-3.582 8-8c2.218-12.932 12.348-23.062 25.28-25.28 4.418 0 8-3.582 8-8s-3.582-8-8-8zm-33.28 19.44c-3.104-4.463-6.977-8.336-11.44-11.44 4.463-3.104 8.336-6.977 11.44-11.44 3.104 4.463 6.977 8.336 11.44 11.44-4.463 3.104-8.336 6.977-11.44 11.44z"/><path d="m415.84 290.8c-5.369 8.537-11.501 16.57-18.32 24l11.76 10.88c7.457-8.183 14.201-16.989 20.16-26.32z"/><path d="m384.72 327.04c-30.737 27.225-70.38 42.251-111.44 42.24h-8v16h8c44.958.05 88.37-16.404 122-46.24z"/></svg>