<?xml version="1.0" encoding="iso-8859-1"?>
<!-- Generator: Adobe Illustrator 19.0.0, SVG Export Plug-In . SVG Version: 6.00 Build 0)  -->
<svg version="1.1" id="Capa_1" xmlns="http://www.w3.org/2000/svg" xmlns:xlink="http://www.w3.org/1999/xlink" x="0px" y="0px"
	 viewBox="0 0 481.28 481.28" style="enable-background:new 0 0 481.28 481.28;" xml:space="preserve">
<g>
	<g>
		<path d="M401.28,169.28h-28.72c-2.249-7.332-5.196-14.431-8.8-21.2l20.32-20.32c3.137-3.111,3.158-8.177,0.046-11.314
			c-0.015-0.016-0.031-0.031-0.046-0.046l-33.92-33.92c-1.51-1.497-3.554-2.332-5.68-2.32c-2.126-0.012-4.17,0.823-5.68,2.32
			l-20.32,20.32c-6.769-3.604-13.868-6.551-21.2-8.8V65.28c0-4.418-3.582-8-8-8h-48c-4.418,0-8,3.582-8,8V94
			c-7.332,2.249-14.431,5.196-21.2,8.8l-20.32-20.32c-3.111-3.137-8.177-3.158-11.314-0.046c-0.016,0.015-0.031,0.031-0.046,0.046
			l-33.92,33.92c-3.137,3.111-3.158,8.177-0.046,11.314c0.015,0.016,0.031,0.031,0.046,0.046l20.32,20.32
			c-3.604,6.769-6.551,13.868-8.8,21.2h-28.72c-4.418,0-8,3.582-8,8v48c0,4.418,3.582,8,8,8H158c2.249,7.332,5.196,14.431,8.8,21.2
			l-20.32,20.32c-3.137,3.111-3.158,8.177-0.046,11.314c0.015,0.016,0.031,0.031,0.046,0.046l33.92,33.92
			c1.51,1.497,3.554,2.332,5.68,2.32c2.126,0.012,4.17-0.823,5.68-2.32l20.32-20.32c6.769,3.604,13.868,6.551,21.2,8.8v28.72
			c0,4.418,3.582,8,8,8h48c4.418,0,8-3.582,8-8v-28.72c7.332-2.249,14.431-5.196,21.2-8.8l20.32,20.32
			c3.111,3.137,8.177,3.158,11.314,0.046c0.016-0.015,0.031-0.031,0.046-0.046l33.92-33.92c3.137-3.111,3.158-8.177,0.046-11.314
			c-0.015-0.016-0.031-0.031-0.046-0.046l-20.32-20.32c3.604-6.769,6.551-13.868,8.8-21.2h28.72c4.418,0,8-3.582,8-8v-48
			C409.28,172.862,405.698,169.28,401.28,169.28z M393.28,217.52H366.4c-3.789-0.101-7.13,2.471-8,6.16
			c-2.394,9.941-6.336,19.443-11.68,28.16c-1.946,3.145-1.483,7.213,1.12,9.84l19.04,19.04l-22.4,22.4l-19.04-19.04
			c-2.627-2.603-6.695-3.066-9.84-1.12c-8.717,5.344-18.219,9.286-28.16,11.68c-3.689,0.87-6.261,4.211-6.16,8v26.64h-32V302.4
			c0.101-3.789-2.471-7.13-6.16-8c-9.941-2.394-19.443-6.336-28.16-11.68c-3.145-1.946-7.213-1.483-9.84,1.12l-19.04,19.28
			l-22.64-22.64l19.04-19.04c2.603-2.627,3.066-6.695,1.12-9.84c-5.344-8.717-9.286-18.219-11.68-28.16
			c-0.87-3.689-4.211-6.261-8-6.16h-26.64v-32h26.88c3.789,0.101,7.13-2.471,8-6.16c2.394-9.94,6.336-19.443,11.68-28.16
			c1.946-3.145,1.483-7.213-1.12-9.84l-19.28-19.04l22.64-22.64l19.04,19.04c2.627,2.603,6.695,3.066,9.84,1.12
			c8.717-5.344,18.219-9.286,28.16-11.68c3.601-0.851,6.148-4.06,6.16-7.76V73.28h32v26.88c-0.101,3.789,2.471,7.13,6.16,8
			c9.94,2.394,19.443,6.336,28.16,11.68c3.145,1.946,7.213,1.483,9.84-1.12l19.04-19.04l22.64,22.64l-19.04,19.04
			c-2.603,2.627-3.066,6.695-1.12,9.84c5.344,8.717,9.286,18.219,11.68,28.16c0.87,3.689,4.211,6.261,8,6.16h26.64V217.52z"/>
	</g>
</g>
<g>
	<g>
		<path d="M321.28,201.28c0,30.928-25.072,56-56,56v16c39.765,0,72-32.236,72-72H321.28z"/>
	</g>
</g>
<g>
	<g>
		<path d="M193.28,201.28h16c0-30.928,25.072-56,56-56v-16C225.516,129.28,193.28,161.515,193.28,201.28z"/>
	</g>
</g>
<g>
	<g>
		<path d="M265.28,169.28c-17.673,0-32,14.327-32,32s14.327,32,32,32c17.673,0,32-14.327,32-32S282.953,169.28,265.28,169.28z
			 M265.28,217.28c-8.837,0-16-7.163-16-16s7.163-16,16-16s16,7.163,16,16S274.117,217.28,265.28,217.28z"/>
	</g>
</g>
<g>
	<g>
		<path d="M261.216,1.344C166.857,1.336,85.873,68.537,68.48,161.28l-27.2,142.48c-0.84,4.338,1.995,8.535,6.333,9.375
			c0.549,0.106,1.108,0.155,1.667,0.145h48v56c0,39.764,32.235,72,72,72h40v32c0,4.418,3.582,8,8,8h232c4.418,0,8-3.582,8-8V197.44
			C457.289,89.148,369.508,1.353,261.216,1.344z M441.28,465.28h-216v-32c0-4.418-3.582-8-8-8h-48c-30.928,0-56-25.072-56-56v-64
			c0-4.418-3.582-8-8-8H58.96l25.2-133.36C102.829,66.188,197.192,2.094,294.924,20.764
			c84.824,16.204,146.22,90.319,146.356,176.676V465.28z"/>
	</g>
</g>
<g>
	<g>
		<path d="M98.56,33.28C85.628,31.062,75.498,20.932,73.28,8c0-4.418-3.582-8-8-8s-8,3.582-8,8
			C55.062,20.932,44.932,31.062,32,33.28c-4.418,0-8,3.582-8,8s3.582,8,8,8c12.932,2.218,23.062,12.348,25.28,25.28
			c0,4.418,3.582,8,8,8s8-3.582,8-8c2.218-12.932,12.348-23.062,25.28-25.28c4.418,0,8-3.582,8-8S102.978,33.28,98.56,33.28z
			 M65.28,52.72c-3.104-4.463-6.977-8.336-11.44-11.44c4.463-3.104,8.336-6.977,11.44-11.44c3.104,4.463,6.977,8.336,11.44,11.44
			C72.257,44.384,68.384,48.257,65.28,52.72z"/>
	</g>
</g>
<g>
	<g>
		<path d="M415.84,290.8c-5.369,8.537-11.501,16.57-18.32,24l11.76,10.88c7.457-8.183,14.201-16.989,20.16-26.32L415.84,290.8z"/>
	</g>
</g>
<g>
	<g>
		<path d="M384.72,327.04c-30.737,27.225-70.38,42.251-111.44,42.24h-8v16h8c44.958,0.05,88.37-16.404,122-46.24L384.72,327.04z"/>
	</g>
</g>
<g>
</g>
<g>
</g>
<g>
</g>
<g>
</g>
<g>
</g>
<g>
</g>
<g>
</g>
<g>
</g>
<g>
</g>
<g>
</g>
<g>
</g>
<g>
</g>
<g>
</g>
<g>
</g>
<g>
</g>
</svg>
