<svg enable-background="new 0 0 480 480" viewBox="0 0 480 480" xmlns="http://www.w3.org/2000/svg"><path d="m479.44 101.12c-1.187-3.077-4.142-5.11-7.44-5.12h-72v-8c0-4.418-3.582-8-8-8h-56v-16c0-35.346-28.654-64-64-64h-64c-35.346 0-64 28.654-64 64v16h-56c-4.418 0-8 3.582-8 8v8h-72c-3.887-.071-7.262 2.663-8 6.48v337.52c0 22.091 17.909 40 40 40h400c22.091 0 40-17.909 40-40v-338.88zm-143.44-5.12h48v80h-48zm-176-32c0-26.51 21.49-48 48-48h64c26.51 0 48 21.49 48 48v32h-16v-32c0-17.673-14.327-32-32-32h-64c-17.673 0-32 14.327-32 32v32h-16zm128 0v32h-96v-32c0-8.837 7.163-16 16-16h64c8.837 0 16 7.163 16 16zm-192 32h48v80h-48zm-56 368c-13.255 0-24-10.745-24-24v-136c6.902 5.235 15.338 8.047 24 8h40v38.24c-5.057 4.523-7.964 10.975-8 17.76v32c0 4.418 3.582 8 8 8v32c-.047 8.662 2.765 17.098 8 24zm104-24c0 13.255-10.745 24-24 24s-24-10.745-24-24v-16h48zm0-32h-48v-48h16v24h16v-24h16zm0-64h-16v-16h-16v16h-16v-96h48zm8 120c5.235-6.902 8.047-15.338 8-24v-32c4.418 0 8-3.582 8-8v-32c-.036-6.785-2.943-13.237-8-17.76v-38.24h160v38.24c-5.057 4.523-7.964 10.975-8 17.76v32c0 4.418 3.582 8 8 8v32c-.047 8.662 2.765 17.098 8 24zm232-24c0 13.255-10.745 24-24 24s-24-10.745-24-24v-16h48zm0-32h-48v-48h16v24h16v-24h16zm0-64h-16v-16h-16v16h-16v-96h48zm80 96c0 13.255-10.745 24-24 24h-48c5.235-6.902 8.047-15.338 8-24v-32c4.418 0 8-3.582 8-8v-32c-.036-6.785-2.943-13.237-8-17.76v-38.24h40c8.662.047 17.098-2.765 24-8zm0-168c0 13.255-10.745 24-24 24h-40v-48h16v-16h-112v16h16v48h-160v-48h16v-16h-112v16h16v48h-40c-13.255 0-24-10.745-24-24v-160h64v64h-16v16h112v-16h-16v-64h160v64h-16v16h112v-16h-16v-64h64z"/><path d="m112 296h16v16h-16z"/><path d="m112 264h16v16h-16z"/><path d="m352 296h16v16h-16z"/><path d="m352 264h16v16h-16z"/></svg>