<?xml version="1.0" encoding="iso-8859-1"?>
<!-- Generator: Adobe Illustrator 19.0.0, SVG Export Plug-In . SVG Version: 6.00 Build 0)  -->
<svg version="1.1" id="Capa_1" xmlns="http://www.w3.org/2000/svg" xmlns:xlink="http://www.w3.org/1999/xlink" x="0px" y="0px"
	 viewBox="0 0 480 480" style="enable-background:new 0 0 480 480;" xml:space="preserve">
<g>
	<g>
		<path d="M479.44,101.12c-1.187-3.077-4.142-5.11-7.44-5.12h-72v-8c0-4.418-3.582-8-8-8h-56V64c0-35.346-28.654-64-64-64h-64
			c-35.346,0-64,28.654-64,64v16H88c-4.418,0-8,3.582-8,8v8H8c-3.887-0.071-7.262,2.663-8,6.48V440c0,22.091,17.909,40,40,40h400
			c22.091,0,40-17.909,40-40V101.12H479.44z M336,96h48v80h-48V96z M160,64c0-26.51,21.49-48,48-48h64c26.51,0,48,21.49,48,48v32
			h-16V64c0-17.673-14.327-32-32-32h-64c-17.673,0-32,14.327-32,32v32h-16V64z M288,64v32h-96V64c0-8.837,7.163-16,16-16h64
			C280.837,48,288,55.163,288,64z M96,96h48v80H96V96z M40,464c-13.255,0-24-10.745-24-24V304c6.902,5.235,15.338,8.047,24,8h40
			v38.24c-5.057,4.523-7.964,10.975-8,17.76v32c0,4.418,3.582,8,8,8v32c-0.047,8.662,2.765,17.098,8,24H40z M144,440
			c0,13.255-10.745,24-24,24s-24-10.745-24-24v-16h48V440z M144,408H96v-48h16v24h16v-24h16V408z M144,344h-16v-16h-16v16H96v-96h48
			V344z M152,464c5.235-6.902,8.047-15.338,8-24v-32c4.418,0,8-3.582,8-8v-32c-0.036-6.785-2.943-13.237-8-17.76V312h160v38.24
			c-5.057,4.523-7.964,10.975-8,17.76v32c0,4.418,3.582,8,8,8v32c-0.047,8.662,2.765,17.098,8,24H152z M384,440
			c0,13.255-10.745,24-24,24s-24-10.745-24-24v-16h48V440z M384,408h-48v-48h16v24h16v-24h16V408z M384,344h-16v-16h-16v16h-16v-96
			h48V344z M464,440c0,13.255-10.745,24-24,24h-48c5.235-6.902,8.047-15.338,8-24v-32c4.418,0,8-3.582,8-8v-32
			c-0.036-6.785-2.943-13.237-8-17.76V312h40c8.662,0.047,17.098-2.765,24-8V440z M464,272c0,13.255-10.745,24-24,24h-40v-48h16v-16
			H304v16h16v48H160v-48h16v-16H64v16h16v48H40c-13.255,0-24-10.745-24-24V112h64v64H64v16h112v-16h-16v-64h160v64h-16v16h112v-16
			h-16v-64h64V272z"/>
	</g>
</g>
<g>
	<g>
		<rect x="112" y="296" width="16" height="16"/>
	</g>
</g>
<g>
	<g>
		<rect x="112" y="264" width="16" height="16"/>
	</g>
</g>
<g>
	<g>
		<rect x="352" y="296" width="16" height="16"/>
	</g>
</g>
<g>
	<g>
		<rect x="352" y="264" width="16" height="16"/>
	</g>
</g>
<g>
</g>
<g>
</g>
<g>
</g>
<g>
</g>
<g>
</g>
<g>
</g>
<g>
</g>
<g>
</g>
<g>
</g>
<g>
</g>
<g>
</g>
<g>
</g>
<g>
</g>
<g>
</g>
<g>
</g>
</svg>
